<?xml version="1.0" encoding="UTF-8" standalone="no"?>
<!-- Created with Inkscape (http://www.inkscape.org/) -->

<svg
   xmlns:dc="http://purl.org/dc/elements/1.1/"
   xmlns:cc="http://creativecommons.org/ns#"
   xmlns:rdf="http://www.w3.org/1999/02/22-rdf-syntax-ns#"
   xmlns:svg="http://www.w3.org/2000/svg"
   xmlns="http://www.w3.org/2000/svg"
   xmlns:sodipodi="http://sodipodi.sourceforge.net/DTD/sodipodi-0.dtd"
   xmlns:inkscape="http://www.inkscape.org/namespaces/inkscape"
   width="166.26509mm"
   height="65.454735mm"
   viewBox="0 0 589.12828 231.92622"
   id="svg4541"
   version="1.1"
   inkscape:version="0.91 r13725"
   sodipodi:docname="NewOS.svg">
  <defs
     id="defs4543" />
  <sodipodi:namedview
     id="base"
     pagecolor="#ffffff"
     bordercolor="#666666"
     borderopacity="1.0"
     inkscape:pageopacity="0.0"
     inkscape:pageshadow="2"
     inkscape:zoom="1.4"
     inkscape:cx="429.5404"
     inkscape:cy="104.02323"
     inkscape:document-units="px"
     inkscape:current-layer="layer1"
     showgrid="false"
     fit-margin-top="2"
     fit-margin-bottom="2"
     fit-margin-left="2"
     fit-margin-right="2"
     inkscape:window-width="1280"
     inkscape:window-height="1002"
     inkscape:window-x="1272"
     inkscape:window-y="-8"
     inkscape:window-maximized="1" />
  <metadata
     id="metadata4546">
    <rdf:RDF>
      <cc:Work
         rdf:about="">
        <dc:format>image/svg+xml</dc:format>
        <dc:type
           rdf:resource="http://purl.org/dc/dcmitype/StillImage" />
        <dc:title></dc:title>
      </cc:Work>
    </rdf:RDF>
  </metadata>
  <g
     inkscape:label="Calque 1"
     inkscape:groupmode="layer"
     id="layer1"
     transform="translate(136.02502,-494.26123)">
    <g
       id="g4686"
       transform="matrix(0.44060793,0,0,0.44060793,226.54189,499.61504)">
      <g
         id="#fefefeff" />
      <g
         id="#f2f2f2ff">
        <path
           id="path4553"
           d="m 116.39,4.57 c 6.5,-0.97 13.08,-0.51 19.62,-0.63 77.33,0.01 154.66,-0.02 231.99,0.03 7.98,-0.15 15.96,0.3 23.87,1.31 7.07,0.92 14.39,0.26 21.22,2.62 8.46,2.75 16.99,5.39 25.19,8.91 9.81,4.61 18.42,11.31 26.73,18.18 9.21,10.2 18.02,21.29 22.48,34.49 4.89,12.29 7.51,25.35 8.77,38.48 -0.21,6.75 1.71,13.3 1.84,20.02 -0.06,82.68 0.09,165.36 -0.03,248.04 -0.04,5.06 -1.95,9.9 -1.79,14.97 0.63,12.49 -3.68,24.46 -6.97,36.33 -2.58,9.71 -8.49,17.95 -13.56,26.46 -3.42,4.21 -6.97,8.34 -10.58,12.39 -5.77,4.58 -11.15,9.78 -17.65,13.35 -6.07,3.49 -12.1,7.24 -18.87,9.26 -8.4,2.43 -16.69,5.39 -25.4,6.56 -7.04,1.59 -14.3,0.45 -21.38,1.66 -10.52,1.93 -21.25,0.63 -31.87,1.1 -72.33,0.04 -144.66,0.06 -216.99,-0.04 -7.43,0.6 -14.58,-2.26 -22,-1.8 -8.49,0.62 -16.81,-1.45 -25.02,-3.34 -13.93,-2.6 -27.25,-8.69 -38.12,-17.81 -4.53,-3.79 -9.78,-6.77 -13.7,-11.26 C 22.55,450.85 13.64,435.12 9.88,418.01 9.01,414.38 7.6,410.91 6.75,407.28 5.12,400.06 6.6,392.55 5.09,385.32 4.53,382.58 3.99,379.82 3.92,377.02 4.05,295.35 3.88,213.68 3.98,132.01 3.9,126.61 3.93,121.19 4.84,115.86 6.11,108.83 5.33,101.56 7.26,94.63 9.76,85.16 11.42,75.35 15.4,66.35 19.89,58.64 23.74,50.44 29.68,43.68 33.33,39.04 37.22,34.52 42,31 53.78,21.98 66.75,14.33 80.97,9.9 85.9,8.52 91.02,8.04 96,6.88 102.7,5.34 109.67,6.07 116.39,4.57 m -9.8,4.32 c -4.65,1.69 -9.6,1.5 -14.42,2.24 -7.91,2.42 -16.05,4.49 -23.2,8.81 -5.44,2.33 -10.93,4.6 -15.54,8.41 -11.9,6.87 -20.15,18.14 -27.98,29.11 -2.83,4.38 -4.38,9.43 -7.07,13.9 -4.37,7.04 -5.6,15.37 -7.49,23.29 -0.75,7.15 -2.91,14.13 -2.73,21.37 C 7.93,201.01 8.07,286 8.06,371 c 0.49,8.11 -0.51,16.36 1.37,24.35 0.89,5.54 0.69,11.26 2.57,16.63 3.4,14 9.71,27.19 18.12,38.86 4.65,5.97 9.32,12.04 15.49,16.54 9.51,8.95 21.53,14.4 33.38,19.5 4.11,1.57 8.42,2.51 12.66,3.67 4.48,1.36 9.36,0.09 13.73,1.99 4.01,1.65 8.4,1.17 12.63,1.17 90.35,0.25 180.7,0.26 271.04,-0.02 13.43,-1.6 27.26,-3.19 39.61,-9.08 6.78,-2.9 13.69,-5.83 19.44,-10.55 6.73,-5.53 14.67,-9.93 19.57,-17.36 3.61,-5.65 8.36,-10.51 11.47,-16.48 6.25,-12.25 12.38,-25.25 12.54,-39.28 0.41,-4.35 2.26,-8.48 2.06,-12.9 0.15,-90.68 0.14,-181.36 0.05,-272.03 0.2,-5.76 -1.67,-11.28 -2,-16.99 -0.25,-3.69 -0.74,-7.4 -2.11,-10.86 -2.77,-7.17 -4.77,-14.65 -8.34,-21.49 -3.51,-7.72 -8.9,-14.34 -13.82,-21.17 -4.3,-6.03 -10.42,-10.31 -16.19,-14.81 -6.38,-4.92 -13.28,-9.22 -20.74,-12.32 -6.36,-2.58 -12.7,-5.54 -19.6,-6.34 -9.65,-1.37 -19.23,-3.65 -29,-3.93 C 302.33,7.99 222.66,8.11 143,8.05 c -10.18,-0.03 -20.34,0.5 -30.52,0.43 -1.97,0 -3.96,-0.04 -5.89,0.41 z"
           inkscape:connector-curvature="0"
           style="opacity:1;fill:#f2f2f2" />
      </g>
      <g
         id="#ffffffff">
        <path
           id="path4556"
           d="m 106.59,8.89 c 1.93,-0.45 3.92,-0.41 5.89,-0.41 10.18,0.07 20.34,-0.46 30.52,-0.43 79.66,0.06 159.33,-0.06 238.99,0.05 9.77,0.28 19.35,2.56 29,3.93 6.9,0.8 13.24,3.76 19.6,6.34 7.46,3.1 14.36,7.4 20.74,12.32 5.77,4.5 11.89,8.78 16.19,14.81 4.92,6.83 10.31,13.45 13.82,21.17 3.57,6.84 5.57,14.32 8.34,21.49 1.37,3.46 1.86,7.17 2.11,10.86 0.33,5.71 2.2,11.23 2,16.99 0.09,90.67 0.1,181.35 -0.05,272.03 0.2,4.42 -1.65,8.55 -2.06,12.9 -0.16,14.03 -6.29,27.03 -12.54,39.28 -3.11,5.97 -7.86,10.83 -11.47,16.48 -4.9,7.43 -12.84,11.83 -19.57,17.36 -5.75,4.72 -12.66,7.65 -19.44,10.55 -12.35,5.89 -26.18,7.48 -39.61,9.08 -90.34,0.28 -180.69,0.27 -271.04,0.02 -4.23,0 -8.62,0.48 -12.63,-1.17 -4.37,-1.9 -9.25,-0.63 -13.73,-1.99 -4.24,-1.16 -8.55,-2.1 -12.66,-3.67 C 67.14,481.78 55.12,476.33 45.61,467.38 39.44,462.88 34.77,456.81 30.12,450.84 21.71,439.17 15.4,425.98 12,411.98 10.12,406.61 10.32,400.89 9.43,395.35 7.55,387.36 8.55,379.11 8.06,371 8.07,286 7.93,201.01 8.16,116.02 c -0.18,-7.24 1.98,-14.22 2.73,-21.37 1.89,-7.92 3.12,-16.25 7.49,-23.29 2.69,-4.47 4.24,-9.52 7.07,-13.9 7.83,-10.97 16.08,-22.24 27.98,-29.11 4.61,-3.81 10.1,-6.08 15.54,-8.41 7.15,-4.32 15.29,-6.39 23.2,-8.81 4.82,-0.74 9.77,-0.55 14.42,-2.24 m 115.3,74.02 c -8.6,1.52 -16.62,5.01 -24.51,8.6 -8,3.85 -14.56,9.94 -21.28,15.62 -2.55,2.14 -4.5,4.86 -6.49,7.51 -2.69,3.58 -5.89,6.75 -8.38,10.49 -3.81,5.57 -6.17,11.94 -8.86,18.1 -3.78,8.73 -6.11,18.06 -6.78,27.56 -1.7,9.33 -1.38,18.83 -1.23,28.27 0.66,5.88 1.2,11.97 3.74,17.41 0.34,-1.58 0.52,-3.17 0.56,-4.78 1.21,4.2 -0.08,9.23 3.01,12.69 1.89,7.09 5.07,13.9 8.38,20.47 12.94,22.53 34.71,40.6 60.29,46.48 -0.71,0.06 -2.13,0.17 -2.85,0.23 0.54,0.45 1.61,1.36 2.15,1.81 5.31,1.69 10.87,2.6 16.43,2.97 9.64,-0.23 19.33,0.42 28.95,-0.54 1.45,0.05 2.43,-1 3.45,-1.87 1.54,0.04 3.02,-0.51 4.01,-1.73 6.49,-1.11 13.31,-2.55 18.67,-6.66 18.1,-6.16 31.55,-21.32 40.9,-37.47 -0.14,0.61 -0.43,1.81 -0.58,2.41 1.81,-1.43 3.54,-2.97 5.39,-4.34 1.7,5.79 0.92,11.88 0.92,17.82 0.15,7.76 -0.8,15.61 0.29,23.31 0.23,7.34 -1.75,14.38 -2.63,21.6 -0.25,-0.17 -0.75,-0.5 -1,-0.67 0.1,6.86 -1.02,13.61 -2.81,20.21 -0.3,0.14 -0.91,0.42 -1.22,0.56 -0.22,1.99 -0.42,3.98 -0.59,5.99 -1.7,1.48 -1.53,3.94 -2.16,5.94 -0.79,3.76 -3.31,6.96 -3.77,10.81 -3.02,5.51 -5.71,11.25 -8.31,16.99 -3.1,1.94 -4.24,5.72 -6.58,8.39 -4.79,5.77 -10.05,11.37 -16.45,15.35 -6.59,3.65 -13.22,7.57 -20.58,9.43 -1.59,0.59 -3.79,0.32 -4.78,1.94 -2.2,-0.08 -4.43,-0.09 -6.54,0.59 -7.42,-1.4 -14.98,-0.03 -22.47,-0.53 -6.63,-2.41 -14.07,-1.32 -20.45,-4.58 -9.04,-3.33 -17.16,-8.55 -25.16,-13.82 -4.33,-3.69 -7.34,-8.65 -11.56,-12.47 -7.34,-9.23 -11.01,-20.98 -12.65,-32.53 -0.03,-1.53 -1.63,-1.97 -2.65,-2.73 0,-0.36 -0.01,-1.09 -0.02,-1.45 -0.27,0.06 -0.83,0.19 -1.11,0.25 -4.17,-1.19 -8.53,-1.02 -12.82,-0.8 -2.94,5.89 -0.26,12.35 1.31,18.21 3.06,12.69 10.88,23.4 17.69,34.29 6.01,7.7 14.03,13.63 22.35,18.65 3.94,2.62 8.35,5.3 13.31,4.49 0.72,1.28 1.55,2.66 3.1,3.03 10.47,3.39 21.4,5.67 32.46,5.47 5.08,-0.24 10.71,0.93 15.25,-1.98 2.42,-0.13 5.18,0.16 7.05,-1.72 9.12,0.2 17.46,-4.01 25.78,-7.17 18.54,-8.33 32.46,-24.56 41.69,-42.32 1.55,-3.4 3.51,-6.75 4.14,-10.47 1.45,-0.95 1.94,-2.61 2.32,-4.2 1.33,-5.42 4.51,-10.35 4.52,-16.08 l 0.33,1.13 c 1.24,-5.1 2.69,-10.16 3.46,-15.36 1.13,-3.07 1.8,-6.31 1.89,-9.58 2.57,-5.66 1.45,-12.28 2.08,-18.34 0.28,-0.13 0.83,-0.39 1.1,-0.52 0.08,-5.78 0.92,-11.53 0.84,-17.31 l 0.43,1.23 c 0.75,-2.25 1.33,-4.59 1.3,-6.97 1.32,-3.58 2.02,-7.37 2.02,-11.19 0.18,-13.01 0.18,-26.03 0.12,-39.04 0.04,-7.41 -2.1,-14.61 -2.1,-22.02 0.04,-3.01 -0.64,-5.97 -2.36,-8.47 -0.03,0.46 -0.1,1.38 -0.13,1.84 -0.37,0.22 -1.11,0.68 -1.48,0.9 1.88,-12.63 -5.4,-24.05 -6.13,-36.41 -0.38,-0.07 -1.13,-0.22 -1.51,-0.29 -0.13,-5.15 -2.58,-9.78 -4.49,-14.44 -3.31,-7.71 -7.69,-14.86 -12.16,-21.93 -9.63,-13.16 -22.27,-24.92 -38,-30.11 l 0.88,-0.36 c -5.38,-1.99 -10.87,-3.92 -16.59,-4.54 -1.88,-2.5 -5.3,-1.62 -8,-1.92 -1.84,-1.21 -3.89,-2.17 -6.14,-2.2 -12.11,-0.69 -24.44,-0.45 -36.2,2.87 z"
           inkscape:connector-curvature="0"
           style="opacity:1;fill:#ffffff" />
        <path
           id="path4558"
           d="m 226.97,98.76 c 4.85,-1.64 9.88,-2.88 15.02,-3.06 8.66,-0.31 17.49,-0.06 25.84,2.47 4.04,1.2 8.24,1.63 12.42,2.03 5.36,1.07 9.75,4.52 14.34,7.28 8.24,4.93 13.99,12.8 21.06,19.13 9.1,13.77 15.68,29.3 17.86,45.72 1.7,12.35 1.27,24.88 0.82,37.3 -3.73,6.35 -5.41,13.61 -5.95,20.9 -4.94,13.34 -14.37,24.66 -25.51,33.35 -7.18,6.46 -16.13,10.32 -24.98,13.9 -9.44,3.96 -19.91,2.66 -29.89,2.97 -8.89,-0.41 -18.36,0.88 -26.61,-3.21 -5.72,-2.83 -12.18,-3.95 -17.6,-7.4 -7.58,-4.8 -15.12,-10 -20.72,-17.12 -7.28,-9.13 -14.3,-19.05 -17.13,-30.54 -0.14,-6.78 -2.2,-13.26 -3.24,-19.9 -0.88,-8.42 -0.4,-16.9 -0.59,-25.34 1.55,-6.57 3.24,-13.1 4.52,-19.73 3.1,-11.51 9.61,-21.75 16.62,-31.26 4.24,-5.8 10.56,-9.44 15.87,-14.13 7.83,-6.97 18.04,-10.24 27.85,-13.36 z"
           inkscape:connector-curvature="0"
           style="opacity:1;fill:#ffffff" />
      </g>
      <g
         id="#f7e0a7ff">
        <path
           id="path4561"
           d="m 221.89,82.91 c 11.76,-3.32 24.09,-3.56 36.2,-2.87 2.25,0.03 4.3,0.99 6.14,2.2 -11.47,0.5 -23.13,-1.23 -34.43,1.37 -13.12,2.41 -25.98,6.95 -37.29,14.11 -9.14,6.57 -18.14,13.75 -24.76,22.96 -6.59,10.07 -12.94,20.61 -15.62,32.48 -3.6,6.64 -4.28,14.23 -4.17,21.66 -0.02,1.6 -0.02,3.22 0,4.83 -0.69,10.67 -0.73,21.43 0.7,32.04 -0.04,1.61 -0.22,3.2 -0.56,4.78 -2.54,-5.44 -3.08,-11.53 -3.74,-17.41 -0.15,-9.44 -0.47,-18.94 1.23,-28.27 0.67,-9.5 3,-18.83 6.78,-27.56 2.69,-6.16 5.05,-12.53 8.86,-18.1 2.49,-3.74 5.69,-6.91 8.38,-10.49 1.99,-2.65 3.94,-5.37 6.49,-7.51 6.72,-5.68 13.28,-11.77 21.28,-15.62 7.89,-3.59 15.91,-7.08 24.51,-8.6 z"
           inkscape:connector-curvature="0"
           style="opacity:1;fill:#f7e0a7" />
      </g>
      <g
         id="#eda641ff">
        <path
           id="path4564"
           d="m 229.8,83.61 c 11.3,-2.6 22.96,-0.87 34.43,-1.37 2.7,0.3 6.12,-0.58 8,1.92 -5.53,-0.15 -11.05,0.09 -16.57,0.18 4.31,1.59 8.5,3.47 12.66,5.42 -4.71,1.33 -9.49,2.75 -14.43,2.66 -4.79,-0.07 -9.63,-0.23 -14.34,0.84 -2.39,0.37 -4.76,0.84 -7.14,1.2 -0.63,-0.14 -1.89,-0.41 -2.51,-0.54 2.27,-2.35 4.7,-4.55 7.14,-6.73 -2.95,-0.07 -5.9,-0.15 -8.84,-0.22 0.53,-1.12 1.07,-2.24 1.6,-3.36 z"
           inkscape:connector-curvature="0"
           style="opacity:1;fill:#eda641" />
      </g>
      <g
         id="#f5c143ff">
        <path
           id="path4567"
           d="m 192.51,97.72 c 11.31,-7.16 24.17,-11.7 37.29,-14.11 -0.53,1.12 -1.07,2.24 -1.6,3.36 2.94,0.07 5.89,0.15 8.84,0.22 -2.44,2.18 -4.87,4.38 -7.14,6.73 0.62,0.13 1.88,0.4 2.51,0.54 -6.25,1.48 -12.69,2.57 -18.5,5.43 -7.77,3.94 -16.42,6.93 -22.13,13.89 -9.81,8.49 -17.41,19.22 -23.28,30.74 -0.7,-2.41 -1.37,-4.82 -2.05,-7.23 -0.48,0.02 -1.44,0.07 -1.93,0.1 -0.79,1.49 -1.59,2.97 -2.38,4.47 -1.02,-0.45 -2.03,-0.9 -3.04,-1.35 -2.01,4.39 -4.43,8.55 -6.97,12.65 2.68,-11.87 9.03,-22.41 15.62,-32.48 6.62,-9.21 15.62,-16.39 24.76,-22.96 z"
           inkscape:connector-curvature="0"
           style="opacity:1;fill:#f5c143" />
      </g>
      <g
         id="#e2843fff">
        <path
           id="path4570"
           d="m 255.66,84.34 c 5.52,-0.09 11.04,-0.33 16.57,-0.18 5.72,0.62 11.21,2.55 16.59,4.54 l -0.88,0.36 c -4.54,1.41 -7.22,5.59 -10.15,9.01 -6.3,-1.31 -12.24,-4.28 -18.77,-4.35 -6.49,-0.14 -12.98,-0.17 -19.47,-0.46 4.71,-1.07 9.55,-0.91 14.34,-0.84 4.94,0.09 9.72,-1.33 14.43,-2.66 -4.16,-1.95 -8.35,-3.83 -12.66,-5.42 z"
           inkscape:connector-curvature="0"
           style="opacity:1;fill:#e2843f" />
      </g>
      <g
         id="#e66a38ff">
        <path
           id="path4573"
           d="m 277.79,98.07 c 2.93,-3.42 5.61,-7.6 10.15,-9.01 15.73,5.19 28.37,16.95 38,30.11 4.47,7.07 8.85,14.22 12.16,21.93 1.91,4.66 4.36,9.29 4.49,14.44 -0.45,-0.1 -1.34,-0.28 -1.79,-0.38 -2.26,-4.27 -3.49,-8.97 -5.49,-13.35 -2.64,-5.84 -5.84,-11.41 -9.19,-16.86 -4.95,-8.26 -12.49,-14.43 -19.05,-21.33 -2,1.9 -4,3.8 -6.01,5.68 2.9,1.36 6.11,2.53 8.2,5.11 2.92,3.6 4.51,8.02 6.39,12.2 -7.07,-6.33 -12.82,-14.2 -21.06,-19.13 -4.59,-2.76 -8.98,-6.21 -14.34,-7.28 -0.82,-0.72 -1.64,-1.43 -2.46,-2.13 z"
           inkscape:connector-curvature="0"
           style="opacity:1;fill:#e66a38" />
      </g>
      <g
         id="#f8e3a3ff">
        <path
           id="path4576"
           d="m 232.41,94.46 c 2.38,-0.36 4.75,-0.83 7.14,-1.2 6.49,0.29 12.98,0.32 19.47,0.46 6.53,0.07 12.47,3.04 18.77,4.35 0.82,0.7 1.64,1.41 2.46,2.13 -4.18,-0.4 -8.38,-0.83 -12.42,-2.03 -8.35,-2.53 -17.18,-2.78 -25.84,-2.47 -5.14,0.18 -10.17,1.42 -15.02,3.06 -9.81,3.12 -20.02,6.39 -27.85,13.36 -5.31,4.69 -11.63,8.33 -15.87,14.13 -7.01,9.51 -13.52,19.75 -16.62,31.26 -1.28,6.63 -2.97,13.16 -4.52,19.73 -0.09,-2.81 -0.3,-5.6 -0.34,-8.4 0.31,-8.49 3.58,-16.54 6.73,-24.32 5.87,-11.52 13.47,-22.25 23.28,-30.74 5.71,-6.96 14.36,-9.95 22.13,-13.89 5.81,-2.86 12.25,-3.95 18.5,-5.43 z"
           inkscape:connector-curvature="0"
           style="opacity:1;fill:#f8e3a3" />
      </g>
      <g
         id="#f34621ff">
        <path
           id="path4579"
           d="m 301.06,109.3 c 2.01,-1.88 4.01,-3.78 6.01,-5.68 6.56,6.9 14.1,13.07 19.05,21.33 3.35,5.45 6.55,11.02 9.19,16.86 2,4.38 3.23,9.08 5.49,13.35 0.45,0.1 1.34,0.28 1.79,0.38 0.38,0.07 1.13,0.22 1.51,0.29 0.73,12.36 8.01,23.78 6.13,36.41 -0.65,3.9 -0.62,7.87 -0.26,11.79 0.92,8.98 -0.39,17.97 -0.01,26.96 -0.24,7.29 0.47,15.27 -3.65,21.69 -1.79,-5.76 -0.49,-11.72 -0.47,-17.59 0.25,-2.76 -1.88,-4.7 -3.67,-6.42 -0.34,-0.33 -1.01,-0.98 -1.34,-1.3 -2.13,3.45 -3.3,7.34 -4.42,11.2 -0.64,0.78 -1.29,1.56 -1.96,2.31 -3.07,2.89 -5.68,6.23 -7.61,9.99 -2.77,5.34 -7.33,9.36 -10.87,14.13 -2.04,2.58 -4.38,5.69 -8,5.71 -1.98,0.15 -2.84,-2.04 -4.1,-3.18 8.23,-5.22 14.17,-13.09 19.74,-20.91 5.82,-9.51 11.78,-19.44 13.06,-30.75 1.25,-12.56 1.27,-25.23 0.91,-37.84 0,-3.91 -1.36,-7.63 -3.37,-10.93 -0.28,1.74 -0.51,3.48 -0.7,5.23 -2.18,-16.42 -8.76,-31.95 -17.86,-45.72 -1.88,-4.18 -3.47,-8.6 -6.39,-12.2 -2.09,-2.58 -5.3,-3.75 -8.2,-5.11 z"
           inkscape:connector-curvature="0"
           style="opacity:1;fill:#f34621" />
      </g>
      <g
         id="#f8ae40ff">
        <path
           id="path4582"
           d="m 164.52,137.39 c 0.49,-0.03 1.45,-0.08 1.93,-0.1 0.68,2.41 1.35,4.82 2.05,7.23 -3.15,7.78 -6.42,15.83 -6.73,24.32 -0.47,0.3 -1.42,0.91 -1.9,1.21 0.01,-0.71 0.02,-2.14 0.02,-2.85 -3.31,3.45 -7.35,6.16 -11.93,7.62 -0.11,-7.43 0.57,-15.02 4.17,-21.66 2.54,-4.1 4.96,-8.26 6.97,-12.65 1.01,0.45 2.02,0.9 3.04,1.35 0.79,-1.5 1.59,-2.98 2.38,-4.47 z"
           inkscape:connector-curvature="0"
           style="opacity:1;fill:#f8ae40" />
      </g>
      <g
         id="#f88936ff">
        <path
           id="path4585"
           d="m 147.96,174.82 c 4.58,-1.46 8.62,-4.17 11.93,-7.62 0,0.71 -0.01,2.14 -0.02,2.85 -0.23,10.77 0.08,21.54 0.04,32.31 -0.84,2.03 -1.82,3.99 -2.83,5.93 -1.41,0.4 -2.82,0.81 -4.23,1.22 -1.02,-5.31 -2.88,-10.47 -3.24,-15.91 -0.27,-4.68 -0.74,-9.35 -1.65,-13.95 -0.02,-1.61 -0.02,-3.23 0,-4.83 z"
           inkscape:connector-curvature="0"
           style="opacity:1;fill:#f88936" />
      </g>
      <g
         id="#d85333ff">
        <path
           id="path4588"
           d="m 334.21,167.1 c 2.01,3.3 3.37,7.02 3.37,10.93 0.36,12.61 0.34,25.28 -0.91,37.84 -1.28,11.31 -7.24,21.24 -13.06,30.75 -5.57,7.82 -11.51,15.69 -19.74,20.91 1.26,1.14 2.12,3.33 4.1,3.18 3.62,-0.02 5.96,-3.13 8,-5.71 3.54,-4.77 8.1,-8.79 10.87,-14.13 1.93,-3.76 4.54,-7.1 7.61,-9.99 -0.62,2.45 -1.47,4.84 -2.4,7.19 -9.35,16.15 -22.8,31.31 -40.9,37.47 -5.36,4.11 -12.18,5.55 -18.67,6.66 -4.94,-0.38 -9.91,-0.31 -14.8,0.5 -5.62,0.9 -11.33,0.57 -16.99,0.8 -4.31,-1.35 -8.83,-1.45 -13.29,-1.09 -2.35,-0.4 -4.7,-0.78 -7.06,-1.08 -25.58,-5.88 -47.35,-23.95 -60.29,-46.48 -3.31,-6.57 -6.49,-13.38 -8.38,-20.47 0.39,-2.58 0.92,-5.15 1.27,-7.74 1.53,8.37 4.82,16.31 8.65,23.87 4.53,8.66 10,17.02 17.46,23.46 7.65,7.61 16.47,14.12 26.29,18.67 13.03,5.83 27.51,7.46 41.66,7.25 7.86,-0.03 15.97,0.36 23.42,-2.6 -5.99,-2.08 -12.3,-0.46 -18.45,-0.46 -24.26,0.53 -48.37,-9.23 -66.02,-25.77 -6.27,-6.62 -11.75,-14.06 -15.93,-22.17 -2.36,-4.57 -5.4,-8.82 -6.99,-13.75 -2.18,-7.04 -3.84,-14.4 -3.16,-21.82 2.96,6.11 1.84,13.52 6.07,19.16 2.83,11.49 9.85,21.41 17.13,30.54 5.6,7.12 13.14,12.32 20.72,17.12 5.42,3.45 11.88,4.57 17.6,7.4 8.25,4.09 17.72,2.8 26.61,3.21 9.98,-0.31 20.45,0.99 29.89,-2.97 8.85,-3.58 17.8,-7.44 24.98,-13.9 11.14,-8.69 20.57,-20.01 25.51,-33.35 3.65,-6.38 6.26,-13.44 5.95,-20.9 0.45,-12.42 0.88,-24.95 -0.82,-37.3 0.19,-1.75 0.42,-3.49 0.7,-5.23 z"
           inkscape:connector-curvature="0"
           style="opacity:1;fill:#d85333" />
      </g>
      <g
         id="#f9c9a3ff">
        <path
           id="path4591"
           d="m 159.87,170.05 c 0.48,-0.3 1.43,-0.91 1.9,-1.21 0.04,2.8 0.25,5.59 0.34,8.4 0.19,8.44 -0.29,16.92 0.59,25.34 1.04,6.64 3.1,13.12 3.24,19.9 -4.23,-5.64 -3.11,-13.05 -6.07,-19.16 l 0.04,-0.96 c 0.04,-10.77 -0.27,-21.54 -0.04,-32.31 z"
           inkscape:connector-curvature="0"
           style="opacity:1;fill:#f9c9a3" />
      </g>
      <g
         id="#dd7841ff">
        <path
           id="path4594"
           d="m 147.96,179.65 c 0.91,4.6 1.38,9.27 1.65,13.95 0.36,5.44 2.22,10.6 3.24,15.91 0.15,2.37 0.12,4.75 0.09,7.13 -0.35,2.59 -0.88,5.16 -1.27,7.74 -3.09,-3.46 -1.8,-8.49 -3.01,-12.69 -1.43,-10.61 -1.39,-21.37 -0.7,-32.04 z"
           inkscape:connector-curvature="0"
           style="opacity:1;fill:#dd7841" />
      </g>
      <g
         id="#fdd7ccff">
        <path
           id="path4597"
           d="m 351.84,189.5 c 1.72,2.5 2.4,5.46 2.36,8.47 0,7.41 2.14,14.61 2.1,22.02 0.06,13.01 0.06,26.03 -0.12,39.04 0,3.82 -0.7,7.61 -2.02,11.19 -0.11,-4.64 -0.15,-9.28 -0.2,-13.93 0.13,-13.78 0.33,-27.57 -0.11,-41.35 -0.06,-3.17 -0.81,-6.26 -1.53,-9.33 -0.48,-4.74 -0.86,-9.51 -0.61,-14.27 0.03,-0.46 0.1,-1.38 0.13,-1.84 z"
           inkscape:connector-curvature="0"
           style="opacity:1;fill:#fdd7cc" />
      </g>
      <g
         id="#d34c33ff">
        <path
           id="path4600"
           d="m 350.23,192.24 c 0.37,-0.22 1.11,-0.68 1.48,-0.9 -0.25,4.76 0.13,9.53 0.61,14.27 -0.82,16.61 0.76,33.25 -0.32,49.85 -1.45,4.69 -2.35,10.07 -6.11,13.54 -1.43,-0.42 -2.79,-1.07 -4.14,-1.68 -0.01,-1.36 -0.02,-2.73 -0.04,-4.09 0.15,-11.52 0.2,-23.04 0.46,-34.56 1.79,1.72 3.92,3.66 3.67,6.42 -0.02,5.87 -1.32,11.83 0.47,17.59 4.12,-6.42 3.41,-14.4 3.65,-21.69 -0.38,-8.99 0.93,-17.98 0.01,-26.96 -0.36,-3.92 -0.39,-7.89 0.26,-11.79 z"
           inkscape:connector-curvature="0"
           style="opacity:1;fill:#d34c33" />
      </g>
      <g
         id="#f55025ff">
        <path
           id="path4603"
           d="m 157.08,208.29 c 1.01,-1.94 1.99,-3.9 2.83,-5.93 l -0.04,0.96 c -0.68,7.42 0.98,14.78 3.16,21.82 1.59,4.93 4.63,9.18 6.99,13.75 4.18,8.11 9.66,15.55 15.93,22.17 17.65,16.54 41.76,26.3 66.02,25.77 6.15,0 12.46,-1.62 18.45,0.46 -7.45,2.96 -15.56,2.57 -23.42,2.6 -14.15,0.21 -28.63,-1.42 -41.66,-7.25 -9.82,-4.55 -18.64,-11.06 -26.29,-18.67 -7.46,-6.44 -12.93,-14.8 -17.46,-23.46 -3.83,-7.56 -7.12,-15.5 -8.65,-23.87 0.03,-2.38 0.06,-4.76 -0.09,-7.13 1.41,-0.41 2.82,-0.82 4.23,-1.22 z"
           inkscape:connector-curvature="0"
           style="opacity:1;fill:#f55025" />
      </g>
      <g
         id="#d37a68ff">
        <path
           id="path4606"
           d="m 352.32,205.61 c 0.72,3.07 1.47,6.16 1.53,9.33 0.44,13.78 0.24,27.57 0.11,41.35 -0.49,-0.2 -1.47,-0.62 -1.96,-0.83 1.08,-16.6 -0.5,-33.24 0.32,-49.85 z"
           inkscape:connector-curvature="0"
           style="opacity:1;fill:#d37a68" />
      </g>
      <g
         id="#fab3a1ff">
        <path
           id="path4609"
           d="m 328.38,230.53 c 0.54,-7.29 2.22,-14.55 5.95,-20.9 0.31,7.46 -2.3,14.52 -5.95,20.9 z"
           inkscape:connector-curvature="0"
           style="opacity:1;fill:#fab3a1" />
      </g>
      <g
         id="#ffa491ff">
        <path
           id="path4612"
           d="m 336.41,238.57 c 1.12,-3.86 2.29,-7.75 4.42,-11.2 0.33,0.32 1,0.97 1.34,1.3 -0.26,11.52 -0.31,23.04 -0.46,34.56 -0.42,-2.5 -1.05,-4.95 -1.53,-7.44 -0.35,-6.9 -0.14,-13.81 -0.37,-20.71 -1.14,1.16 -2.3,2.3 -3.4,3.49 z"
           inkscape:connector-curvature="0"
           style="opacity:1;fill:#ffa491" />
      </g>
      <g
         id="#ffe9d4ff">
        <path
           id="path4615"
           d="m 336.41,238.57 c 1.1,-1.19 2.26,-2.33 3.4,-3.49 0.23,6.9 0.02,13.81 0.37,20.71 0.32,10.81 -0.89,21.6 -0.55,32.41 -0.39,-0.23 -1.17,-0.69 -1.56,-0.93 -1.09,-7.7 -0.14,-15.55 -0.29,-23.31 0,-5.94 0.78,-12.03 -0.92,-17.82 -1.85,1.37 -3.58,2.91 -5.39,4.34 0.15,-0.6 0.44,-1.8 0.58,-2.41 0.93,-2.35 1.78,-4.74 2.4,-7.19 0.67,-0.75 1.32,-1.53 1.96,-2.31 z"
           inkscape:connector-curvature="0"
           style="opacity:1;fill:#ffe9d4" />
      </g>
      <g
         id="#b56259ff">
        <path
           id="path4618"
           d="m 340.18,255.79 c 0.48,2.49 1.11,4.94 1.53,7.44 0.02,1.36 0.03,2.73 0.04,4.09 0.02,4.72 0.59,9.41 1.39,14.06 1.62,-0.44 3.38,-0.6 4.86,-1.46 2.11,-4.45 2.64,-9.46 3.87,-14.2 -0.05,3.42 0.16,6.84 0.56,10.24 0.08,5.78 -0.76,11.53 -0.84,17.31 -0.27,0.13 -0.82,0.39 -1.1,0.52 -3.14,1.51 -6.51,2.49 -9.93,3.14 -0.31,-2.91 -0.67,-5.82 -0.93,-8.73 -0.34,-10.81 0.87,-21.6 0.55,-32.41 z"
           inkscape:connector-curvature="0"
           style="opacity:1;fill:#b56259" />
      </g>
      <g
         id="#ca5748ff">
        <path
           id="path4621"
           d="m 345.89,269 c 3.76,-3.47 4.66,-8.85 6.11,-13.54 0.11,3.42 0.1,6.84 -0.13,10.26 -1.23,4.74 -1.76,9.75 -3.87,14.2 -1.48,0.86 -3.24,1.02 -4.86,1.46 -0.8,-4.65 -1.37,-9.34 -1.39,-14.06 1.35,0.61 2.71,1.26 4.14,1.68 z"
           inkscape:connector-curvature="0"
           style="opacity:1;fill:#ca5748" />
      </g>
      <g
         id="#d49591ff">
        <path
           id="path4624"
           d="m 352,255.46 c 0.49,0.21 1.47,0.63 1.96,0.83 0.05,4.65 0.09,9.29 0.2,13.93 0.03,2.38 -0.55,4.72 -1.3,6.97 l -0.43,-1.23 c -0.4,-3.4 -0.61,-6.82 -0.56,-10.24 0.23,-3.42 0.24,-6.84 0.13,-10.26 z"
           inkscape:connector-curvature="0"
           style="opacity:1;fill:#d49591" />
      </g>
      <g
         id="#9b6d73ff">
        <path
           id="path4627"
           d="m 338.07,287.27 c 0.39,0.24 1.17,0.7 1.56,0.93 0.26,2.91 0.62,5.82 0.93,8.73 3.42,-0.65 6.79,-1.63 9.93,-3.14 -0.63,6.06 0.49,12.68 -2.08,18.34 -0.02,-1.96 -0.08,-3.92 -0.12,-5.88 -2.29,1.8 -4.46,4.06 -7.4,4.74 -2.08,0.39 -3.78,-1.17 -5.45,-2.12 0.88,-7.22 2.86,-14.26 2.63,-21.6 z"
           inkscape:connector-curvature="0"
           style="opacity:1;fill:#9b6d73" />
      </g>
      <g
         id="#facebdff">
        <path
           id="path4630"
           d="m 217.49,291.56 c 0.72,-0.06 2.14,-0.17 2.85,-0.23 2.36,0.3 4.71,0.68 7.06,1.08 2.78,0.91 5.62,1.75 8.59,1.7 0.02,0.56 0.06,1.67 0.08,2.23 -5.56,-0.37 -11.12,-1.28 -16.43,-2.97 -0.54,-0.45 -1.61,-1.36 -2.15,-1.81 z"
           inkscape:connector-curvature="0"
           style="opacity:1;fill:#facebd" />
      </g>
      <g
         id="#d57b62ff">
        <path
           id="path4633"
           d="m 227.4,292.41 c 4.46,-0.36 8.98,-0.26 13.29,1.09 l -0.98,0.13 c -1.24,0.16 -2.48,0.32 -3.72,0.48 -2.97,0.05 -5.81,-0.79 -8.59,-1.7 z"
           inkscape:connector-curvature="0"
           style="opacity:1;fill:#d57b62" />
      </g>
      <g
         id="#ca7358ff">
        <path
           id="path4636"
           d="m 257.68,292.7 c 4.89,-0.81 9.86,-0.88 14.8,-0.5 -0.99,1.22 -2.47,1.77 -4.01,1.73 -9.59,-0.15 -19.22,1.07 -28.76,-0.3 l 0.98,-0.13 c 5.66,-0.23 11.37,0.1 16.99,-0.8 z"
           inkscape:connector-curvature="0"
           style="opacity:1;fill:#ca7358" />
      </g>
      <g
         id="#eab3a1ff">
        <path
           id="path4639"
           d="m 235.99,294.11 c 1.24,-0.16 2.48,-0.32 3.72,-0.48 9.54,1.37 19.17,0.15 28.76,0.3 -1.02,0.87 -2,1.92 -3.45,1.87 -9.62,0.96 -19.31,0.31 -28.95,0.54 -0.02,-0.56 -0.06,-1.67 -0.08,-2.23 z"
           inkscape:connector-curvature="0"
           style="opacity:1;fill:#eab3a1" />
      </g>
      <g
         id="#897787ff">
        <path
           id="path4642"
           d="m 340.89,310.99 c 2.94,-0.68 5.11,-2.94 7.4,-4.74 0.04,1.96 0.1,3.92 0.12,5.88 -0.09,3.27 -0.76,6.51 -1.89,9.58 -2.28,-0.54 -4.62,-1.87 -7,-1.35 -2.97,2.35 -4.11,6.67 -7.89,8.05 1.79,-6.6 2.91,-13.35 2.81,-20.21 0.25,0.17 0.75,0.5 1,0.67 1.67,0.95 3.37,2.51 5.45,2.12 z"
           inkscape:connector-curvature="0"
           style="opacity:1;fill:#897787" />
      </g>
      <g
         id="#78849cff">
        <path
           id="path4645"
           d="m 339.52,320.36 c 2.38,-0.52 4.72,0.81 7,1.35 -0.77,5.2 -2.22,10.26 -3.46,15.36 l -0.33,-1.13 c -0.44,-1.65 -0.92,-3.29 -1.39,-4.93 -4.25,-0.3 -8.43,0.94 -11.52,3.95 0.17,-2.01 0.37,-4 0.59,-5.99 0.31,-0.14 0.92,-0.42 1.22,-0.56 3.78,-1.38 4.92,-5.7 7.89,-8.05 z"
           inkscape:connector-curvature="0"
           style="opacity:1;fill:#78849c" />
      </g>
      <g
         id="#6989a8ff">
        <path
           id="path4648"
           d="m 329.82,334.96 c 3.09,-3.01 7.27,-4.25 11.52,-3.95 0.47,1.64 0.95,3.28 1.39,4.93 -0.01,5.73 -3.19,10.66 -4.52,16.08 -0.38,1.59 -0.87,3.25 -2.32,4.2 -0.09,-1.59 -0.18,-3.18 -0.26,-4.77 0.77,-4.09 1.56,-8.18 2.31,-12.28 -1.77,-0.33 -3.53,-0.67 -5.29,-1.01 -2.05,6.02 -4.37,12.07 -8.51,17.01 -0.06,-0.87 -0.19,-2.6 -0.25,-3.46 0.46,-3.85 2.98,-7.05 3.77,-10.81 0.63,-2 0.46,-4.46 2.16,-5.94 z"
           inkscape:connector-curvature="0"
           style="opacity:1;fill:#6989a8" />
      </g>
      <g
         id="#b8efd7ff">
        <path
           id="path4651"
           d="m 151.76,335.74 c 4.29,-0.22 8.65,-0.39 12.82,0.8 -3.56,1.05 -7.28,1.19 -10.97,1.33 -0.54,10.56 3.23,20.61 7.47,30.07 5.95,12.82 15.69,23.54 26.69,32.25 5.63,4.65 12.41,7.5 18.65,11.19 -4.96,0.81 -9.37,-1.87 -13.31,-4.49 -8.32,-5.02 -16.34,-10.95 -22.35,-18.65 -6.81,-10.89 -14.63,-21.6 -17.69,-34.29 -1.57,-5.86 -4.25,-12.32 -1.31,-18.21 z"
           inkscape:connector-curvature="0"
           style="opacity:1;fill:#b8efd7" />
      </g>
      <g
         id="#65d7a5ff">
        <path
           id="path4654"
           d="m 164.58,336.54 c 0.28,-0.06 0.84,-0.19 1.11,-0.25 0.01,0.36 0.02,1.09 0.02,1.45 -0.34,8.55 2.98,16.6 6.3,24.29 7.39,15.62 20.32,28.58 35.89,36.06 7.12,2.74 14.26,6.33 22.08,6.14 -0.04,0.36 -0.13,1.08 -0.17,1.44 -0.01,0.29 -0.04,0.86 -0.05,1.14 1.37,1.37 2.85,2.64 4.32,3.93 -3.54,1.56 -7.01,3.27 -10.47,4.98 -5.75,-1.38 -11.55,-2.57 -17.19,-4.34 -6.24,-3.69 -13.02,-6.54 -18.65,-11.19 -11,-8.71 -20.74,-19.43 -26.69,-32.25 -4.24,-9.46 -8.01,-19.51 -7.47,-30.07 3.69,-0.14 7.41,-0.28 10.97,-1.33 z"
           inkscape:connector-curvature="0"
           style="opacity:1;fill:#65d7a5" />
      </g>
      <g
         id="#c4f9dfff">
        <path
           id="path4657"
           d="m 165.71,337.74 c 1.02,0.76 2.62,1.2 2.65,2.73 1.64,11.55 5.31,23.3 12.65,32.53 4.22,3.82 7.23,8.78 11.56,12.47 8,5.27 16.12,10.49 25.16,13.82 6.38,3.26 13.82,2.17 20.45,4.58 -2.73,0.05 -5.47,0.21 -8.2,0.36 -7.82,0.19 -14.96,-3.4 -22.08,-6.14 -15.57,-7.48 -28.5,-20.44 -35.89,-36.06 -3.32,-7.69 -6.64,-15.74 -6.3,-24.29 z"
           inkscape:connector-curvature="0"
           style="opacity:1;fill:#c4f9df" />
      </g>
      <g
         id="#578fbbff">
        <path
           id="path4660"
           d="m 332.65,338.16 c 1.76,0.34 3.52,0.68 5.29,1.01 -0.75,4.1 -1.54,8.19 -2.31,12.28 -1.08,1.69 -2.24,3.31 -3.28,5.02 -0.07,-0.59 -0.21,-1.76 -0.28,-2.35 -3.66,2.12 -7.34,4.49 -9.82,8.01 -1.83,2.56 -3.8,5.1 -6.67,6.57 2.6,-5.74 5.29,-11.48 8.31,-16.99 0.06,0.86 0.19,2.59 0.25,3.46 4.14,-4.94 6.46,-10.99 8.51,-17.01 z"
           inkscape:connector-curvature="0"
           style="opacity:1;fill:#578fbb" />
      </g>
      <g
         id="#427bb8ff">
        <path
           id="path4663"
           d="m 332.35,356.47 c 1.04,-1.71 2.2,-3.33 3.28,-5.02 0.08,1.59 0.17,3.18 0.26,4.77 -0.63,3.72 -2.59,7.07 -4.14,10.47 -9.23,17.76 -23.15,33.99 -41.69,42.32 -8.32,3.16 -16.66,7.37 -25.78,7.17 -3.22,-0.19 -6.43,-0.47 -9.66,-0.38 1.2,-0.48 2.38,-1 3.56,-1.51 6.02,-1.78 12.33,-2.32 18.32,-4.23 12.53,-4.05 24.62,-10.21 34.02,-19.58 6.18,-6.32 11.1,-13.72 15.8,-21.17 2.52,-4.02 4.44,-8.38 6.03,-12.84 z"
           inkscape:connector-curvature="0"
           style="opacity:1;fill:#427bb8" />
      </g>
      <g
         id="#4286d6ff">
        <path
           id="path4666"
           d="m 322.25,362.13 c 2.48,-3.52 6.16,-5.89 9.82,-8.01 0.07,0.59 0.21,1.76 0.28,2.35 -1.59,4.46 -3.51,8.82 -6.03,12.84 -4.7,7.45 -9.62,14.85 -15.8,21.17 -9.4,9.37 -21.49,15.53 -34.02,19.58 -5.99,1.91 -12.3,2.45 -18.32,4.23 3.91,-2.62 6.45,-6.64 9.01,-10.48 0.99,-1.62 3.19,-1.35 4.78,-1.94 7.36,-1.86 13.99,-5.78 20.58,-9.43 6.4,-3.98 11.66,-9.58 16.45,-15.35 2.34,-2.67 3.48,-6.45 6.58,-8.39 2.87,-1.47 4.84,-4.01 6.67,-6.57 z"
           inkscape:connector-curvature="0"
           style="opacity:1;fill:#4286d6" />
      </g>
      <g
         id="#a5e0e1ff">
        <path
           id="path4669"
           d="m 229.98,404.23 c 2.73,-0.15 5.47,-0.31 8.2,-0.36 7.49,0.5 15.05,-0.87 22.47,0.53 -3.75,1.29 -7.7,1.88 -11.66,1.74 -6.4,-0.1 -12.79,-0.13 -19.18,-0.47 0.04,-0.36 0.13,-1.08 0.17,-1.44 z"
           inkscape:connector-curvature="0"
           style="opacity:1;fill:#a5e0e1" />
      </g>
      <g
         id="#49a6c5ff">
        <path
           id="path4672"
           d="m 260.65,404.4 c 2.11,-0.68 4.34,-0.67 6.54,-0.59 -2.56,3.84 -5.1,7.86 -9.01,10.48 -1.18,0.51 -2.36,1.03 -3.56,1.51 -4.31,0.68 -8.69,0.4 -12.93,-0.56 1.9,-0.88 3.81,-1.73 5.73,-2.56 -0.28,-1.16 -0.56,-2.32 -0.84,-3.47 0.8,-1.03 1.6,-2.05 2.41,-3.07 3.96,0.14 7.91,-0.45 11.66,-1.74 z"
           inkscape:connector-curvature="0"
           style="opacity:1;fill:#49a6c5" />
      </g>
      <g
         id="#55bebdff">
        <path
           id="path4675"
           d="m 229.76,406.81 c 0.01,-0.28 0.04,-0.85 0.05,-1.14 6.39,0.34 12.78,0.37 19.18,0.47 -0.81,1.02 -1.61,2.04 -2.41,3.07 0.28,1.15 0.56,2.31 0.84,3.47 -1.92,0.83 -3.83,1.68 -5.73,2.56 4.24,0.96 8.62,1.24 12.93,0.56 3.23,-0.09 6.44,0.19 9.66,0.38 -1.87,1.88 -4.63,1.59 -7.05,1.72 -11.22,-0.3 -22.69,1.02 -33.62,-2.18 3.46,-1.71 6.93,-3.42 10.47,-4.98 -1.47,-1.29 -2.95,-2.56 -4.32,-3.93 z"
           inkscape:connector-curvature="0"
           style="opacity:1;fill:#55bebd" />
      </g>
      <g
         id="#b8f3efff">
        <path
           id="path4678"
           d="m 206.42,411.38 c 5.64,1.77 11.44,2.96 17.19,4.34 10.93,3.2 22.4,1.88 33.62,2.18 -4.54,2.91 -10.17,1.74 -15.25,1.98 -11.06,0.2 -21.99,-2.08 -32.46,-5.47 -1.55,-0.37 -2.38,-1.75 -3.1,-3.03 z"
           inkscape:connector-curvature="0"
           style="opacity:1;fill:#b8f3ef" />
      </g>
    </g>
    <g
       id="g4813"
       transform="matrix(0.46219856,0,0,0.46219856,-132.49662,509.03548)">
      <g
         id="#ffffffff-7">
        <path
           id="path4777"
           d="m 110.61,65.9 c 7.68,-2.03 15.48,7.11 11.73,14.31 -2.54,6.96 -12.83,8.7 -17.41,2.83 -5.4,-5.57 -1.8,-15.71 5.68,-17.14 z"
           inkscape:connector-curvature="0"
           style="opacity:1;fill:#ffffff" />
        <path
           id="path4779"
           d="m 191.57,65.95 c 7.27,-1.96 14.92,6.2 12.09,13.33 -1.82,7.31 -12.2,9.89 -17.22,4.3 -6,-5.28 -2.72,-16.3 5.13,-17.63 z"
           inkscape:connector-curvature="0"
           style="opacity:1;fill:#ffffff" />
      </g>
      <g
         id="#94c248ff">
        <path
           id="path4782"
           d="m 211.23,16.56 c 0.69,-0.03 2.09,-0.1 2.78,-0.14 0.67,1.46 2.04,3.12 0.86,4.7 -5.32,8.85 -12.27,16.68 -17.06,25.86 16.77,7.84 31.45,20.61 40.38,36.94 4.77,8.83 8.15,18.59 8.62,28.67 -62.88,0.03 -125.76,0.1 -188.64,-0.03 C 59.9,93.45 69.64,75.59 83.71,62.74 90.75,56.41 98.66,51.07 107.25,47.06 104.29,40.39 99.33,34.9 95.45,28.78 93.27,25.1 88.97,21.74 90.19,16.99 c 1.97,0.31 4.61,-0.14 5.74,1.96 5.7,8.38 11.64,16.59 17.14,25.1 10.1,-3.05 20.32,-6.13 30.93,-6.59 10.1,-0.39 20.33,-0.44 30.25,1.75 6.08,1.01 11.84,3.27 17.75,4.93 6.39,-9.21 12.42,-18.67 19.23,-27.58 M 110.61,65.9 c -7.48,1.43 -11.08,11.57 -5.68,17.14 4.58,5.87 14.87,4.13 17.41,-2.83 3.75,-7.2 -4.05,-16.34 -11.73,-14.31 m 80.96,0.05 c -7.85,1.33 -11.13,12.35 -5.13,17.63 5.02,5.59 15.4,3.01 17.22,-4.3 2.83,-7.13 -4.82,-15.29 -12.09,-13.33 z"
           inkscape:connector-curvature="0"
           style="opacity:1;fill:#94c248" />
        <path
           id="path4784"
           d="m 58.58,126.5 c 62.96,-0.14 125.92,-0.09 188.88,-0.03 -0.02,52.2 0.05,104.4 -0.03,156.6 -1.79,6.68 -7.16,13.02 -14.46,13.45 -6.86,0.3 -13.74,0.02 -20.61,0.1 -0.33,2.45 -0.66,4.89 -0.64,7.37 0.02,13.66 0.08,27.32 -0.01,40.98 0.14,7.12 -4.34,13.62 -10.27,17.23 -4.54,2.95 -10.26,2.95 -15.44,2.31 -9.4,-1.85 -16.51,-11.01 -16.46,-20.52 -0.12,-15.78 0.07,-31.57 -0.1,-47.35 -10.98,-0.01 -21.95,-0.03 -32.93,-0.01 -0.09,15.46 0.02,30.92 -0.03,46.38 -0.02,4.71 -1.12,9.58 -4.05,13.36 -2.98,4.13 -7.62,6.49 -11.77,9.23 -3.58,0.63 -7.27,-0.35 -10.89,-0.42 2.96,-0.03 5.92,0.12 8.87,0.34 0.69,-0.52 1.37,-1.04 2.06,-1.56 -5.24,1.47 -11.21,1.25 -15.92,-1.67 -6.41,-3.67 -10.79,-10.81 -10.53,-18.28 -0.04,-15.78 0.05,-31.56 -0.04,-47.34 -6.74,-0.16 -13.47,0.09 -20.2,-0.07 -6.49,-0.16 -12.38,-4.89 -14.44,-10.95 -1.59,-4.74 -0.86,-9.79 -0.98,-14.68 -0.01,-48.15 0.01,-96.31 -0.01,-144.47 z"
           inkscape:connector-curvature="0"
           style="opacity:1;fill:#94c248" />
        <path
           id="path4786"
           d="m 274.1,125.81 c 7.36,-0.69 15.02,2.86 19.12,9.04 2.94,4.06 4.08,9.14 4.09,14.09 -0.03,24.03 -0.02,48.05 -0.01,72.08 -0.02,6.16 0.53,12.55 -1.63,18.46 -2.2,5.49 -6.61,10.2 -12.26,12.16 -8.59,3.39 -19.36,0.31 -24.54,-7.42 -3.31,-4.32 -4.35,-9.89 -4.25,-15.22 0.11,-27.36 -0.04,-54.71 0.07,-82.06 0.13,-10.6 8.7,-20.37 19.41,-21.13 z"
           inkscape:connector-curvature="0"
           style="opacity:1;fill:#94c248" />
        <path
           id="path4788"
           d="m 22.46,128.78 c 10.1,-3.83 22.11,1.89 26.25,11.68 2.3,4.85 1.76,10.33 1.78,15.54 -0.02,25.65 -0.02,51.3 0,76.95 0.24,8.11 -4.55,16.16 -11.86,19.72 -4.29,2.35 -9.42,2.44 -14.15,1.68 C 15.64,252.3 8.5,244.01 8.08,234.89 7.21,224.94 8.43,214.97 8,205.02 8.19,197 7.34,188.97 7.99,180.96 9,169.01 6.57,156.99 8.41,145.08 c 1.31,-7.45 6.86,-13.91 14.05,-16.3 z"
           inkscape:connector-curvature="0"
           style="opacity:1;fill:#94c248" />
      </g>
      <g
         id="#3f3b3bff">
        <path
           id="path4791"
           d="m 474.39,233.16 c 4.05,-6.24 12.54,-8.35 19.39,-6.14 3.65,1.15 5.97,4.32 8.49,6.98 2.91,-2.77 5.53,-6.28 9.7,-7.17 5.01,-1.09 10.85,-1.06 15.04,2.3 4.57,3.43 6.64,9.3 6.6,14.87 0.03,14.35 -0.01,28.7 0.02,43.05 -5.93,-0.01 -11.86,-0.02 -17.78,0 -0.01,-12.36 -0.04,-24.72 0.02,-37.08 -0.03,-2.11 0.06,-4.32 -0.93,-6.25 -3.12,-0.7 -3.74,2.92 -3.62,5.2 -0.01,12.65 -0.03,25.31 0.03,37.96 -5.93,0.28 -11.88,0.12 -17.81,0.17 -0.03,-12.35 -0.03,-24.69 0.01,-37.03 0.05,-2.19 -0.35,-4.35 -0.84,-6.47 -0.81,0.24 -2.45,0.72 -3.27,0.95 -0.39,2.51 -0.74,5.04 -0.69,7.6 0.03,11.65 0.02,23.3 0.01,34.95 -5.89,-0.01 -11.78,-0.03 -17.67,0.02 0.06,-11.01 -0.42,-22.02 -0.06,-33.03 -0.09,-7.02 -0.96,-14.81 3.36,-20.88 z"
           inkscape:connector-curvature="0"
           style="opacity:1;fill:#3f3b3b" />
        <path
           id="path4793"
           d="m 323.72,331.61 c 13.1,-11.28 34.15,-11.54 47.69,-0.88 7.59,6.03 12,15.67 12.05,25.32 0.02,12.49 0,24.99 0,37.49 -4.89,0.01 -9.78,0.01 -14.67,0 -0.04,-12.89 0.05,-25.77 -0.04,-38.65 0.02,-10.81 -10.2,-19.93 -20.83,-19.6 -10.15,-0.06 -20.38,8.22 -20.57,18.74 -0.12,13.15 -0.01,26.31 -0.04,39.46 -4.86,0.08 -9.72,0.06 -14.58,0.04 0.01,-12.53 -0.03,-25.05 0.01,-37.57 0.18,-9.15 3.95,-18.35 10.98,-24.35 z"
           inkscape:connector-curvature="0"
           style="opacity:1;fill:#3f3b3b" />
        <path
           id="path4795"
           d="m 580.19,324.15 c 8.68,-1.81 18.03,0.34 25.23,5.47 13.04,9.08 17.94,27.32 12.17,41.96 -4.7,12.86 -17.79,22.37 -31.6,22.01 -13.65,-0.06 -26.42,-9.67 -30.86,-22.48 -5.68,-14.58 -0.45,-32.61 12.45,-41.57 3.75,-2.67 8.1,-4.47 12.61,-5.39 m 0.89,14.18 c -8.27,2.24 -14.32,10.28 -14.63,18.77 -0.52,6.48 2.08,13.17 7.03,17.42 5.57,5.06 14.16,6.47 20.98,3.21 5.09,-2.13 8.59,-6.65 10.87,-11.52 1.41,-5.01 1.54,-10.31 0,-15.31 -2.28,-5.49 -6.57,-9.88 -12.01,-12.27 -3.98,-0.99 -8.27,-1.68 -12.24,-0.3 z"
           inkscape:connector-curvature="0"
           style="opacity:1;fill:#3f3b3b" />
        <path
           id="path4797"
           d="m 247.83,327.7 c 4,-1.05 8.04,-2.19 12.21,-2.16 13.14,-0.04 26.27,0.02 39.4,-0.02 0.02,22.68 -0.01,45.36 0.01,68.04 -4.93,-0.04 -9.87,0 -14.8,-0.05 0.01,-17.72 0,-35.45 0.01,-53.18 -8.56,0.08 -17.12,-0.1 -25.68,0.08 -10.82,0.24 -20.84,10.62 -18.93,21.66 1.21,9.17 9.92,15.88 18.85,16.5 4.62,0.26 9.25,0.06 13.88,0.11 0.01,4.95 0.04,9.91 -0.01,14.87 -7.27,-0.22 -14.72,0.73 -21.8,-1.38 -9.78,-2.58 -18.47,-9.31 -23.1,-18.33 -4.59,-8.93 -4.56,-20.05 0.13,-28.93 4.15,-7.98 11.5,-13.98 19.83,-17.21 z"
           inkscape:connector-curvature="0"
           style="opacity:1;fill:#3f3b3b" />
        <path
           id="path4799"
           d="m 636.46,325.52 c 4.94,0.02 9.88,-0.01 14.82,0.05 -0.01,22.64 -0.01,45.28 0,67.92 -4.94,0.09 -9.87,0.03 -14.8,0.07 -0.01,-22.68 0.03,-45.36 -0.02,-68.04 z"
           inkscape:connector-curvature="0"
           style="opacity:1;fill:#3f3b3b" />
        <path
           id="path4801"
           d="m 665.81,325.55 c 12.74,0.11 25.5,-0.32 38.23,0.24 1.38,0.37 2.79,0.68 4.2,0.98 13.53,3.61 23.04,17.4 22.24,31.27 0.69,9.48 -2.54,19.35 -9.37,26.08 -5.94,6.21 -14.61,9.33 -23.11,9.3 -10.77,0.01 -21.55,-0.02 -32.33,0.01 -0.02,-4.91 -0.01,-9.83 0,-14.75 11.14,0 22.29,0.03 33.44,0 4.86,0.03 9.82,-1.86 12.97,-5.66 4.89,-5.7 5.63,-13.95 3.81,-20.99 -1.78,-6.57 -8,-11.65 -14.87,-11.63 -11.73,-0.15 -23.46,0.02 -35.19,-0.07 -0.01,-4.93 -0.01,-9.85 -0.02,-14.78 z"
           inkscape:connector-curvature="0"
           style="opacity:1;fill:#3f3b3b" />
        <path
           id="path4803"
           d="m 398.29,340.35 c -0.07,-4.94 -0.04,-9.89 -0.03,-14.84 12.61,0.15 25.24,-0.21 37.85,0.21 7.6,1.5 15.03,5.03 19.77,11.36 10.03,13.21 9.43,33.71 -1.68,46.11 -6.04,6.79 -15.21,10.37 -24.22,10.24 -10.7,-0.02 -21.4,0 -32.1,-0.03 -0.26,-4.82 -0.14,-9.66 -0.18,-14.48 11.66,-0.58 23.35,0.01 35.01,-0.3 4.31,-0.25 8.58,-2.15 11.39,-5.49 5.04,-5.72 5.81,-14.17 3.88,-21.31 -1.77,-6.6 -8.18,-11.55 -15.04,-11.44 -11.55,-0.08 -23.1,-0.02 -34.65,-0.03 z"
           inkscape:connector-curvature="0"
           style="opacity:1;fill:#3f3b3b" />
        <path
           id="path4805"
           d="m 477.55,340.34 c -0.02,-4.94 0,-9.87 -0.01,-14.8 13.51,0.09 27.02,-0.24 40.53,0.21 6.49,1.07 13.59,2.91 17.46,8.73 4.43,6.96 4.56,15.85 3.13,23.74 -0.84,5.16 -4.08,9.56 -8.34,12.47 2.07,2.42 3.73,5.14 5,8.06 1.29,4.82 1.48,9.83 1.16,14.79 -4.67,0.02 -9.33,0.02 -14,-0.04 0.2,-3.54 0.18,-7.08 -0.06,-10.61 -2.15,-4 -5.43,-8.36 -10.39,-8.56 -9.69,-0.17 -19.39,-0.03 -29.07,-0.03 -1.6,-0.07 -3.26,0.12 -4.75,-0.52 -0.51,-1.55 -0.43,-3.21 -0.52,-4.82 0.46,-2.8 0.61,-5.63 0.59,-8.47 11.58,0.02 23.16,0.05 34.74,0 4.63,-0.02 10.44,-1.47 12.01,-6.43 0.83,-3.63 1.01,-8.27 -2.03,-10.99 -3.11,-2.42 -7.22,-2.74 -11.01,-2.72 -11.48,-0.01 -22.96,0.01 -34.44,-0.01 z"
           inkscape:connector-curvature="0"
           style="opacity:1;fill:#3f3b3b" />
      </g>
    </g>
  </g>
</svg>
