<?xml version="1.0" encoding="UTF-8" standalone="no"?>
<!-- Created with Inkscape (http://www.inkscape.org/) -->

<svg
   xmlns:dc="http://purl.org/dc/elements/1.1/"
   xmlns:cc="http://creativecommons.org/ns#"
   xmlns:rdf="http://www.w3.org/1999/02/22-rdf-syntax-ns#"
   xmlns:svg="http://www.w3.org/2000/svg"
   xmlns="http://www.w3.org/2000/svg"
   xmlns:sodipodi="http://sodipodi.sourceforge.net/DTD/sodipodi-0.dtd"
   xmlns:inkscape="http://www.inkscape.org/namespaces/inkscape"
   width="213.85143mm"
   height="108.78408mm"
   viewBox="0 0 757.74127 385.4554"
   id="svg2"
   version="1.1"
   inkscape:version="0.91 r13725"
   sodipodi:docname="paysol.svg">
  <defs
     id="defs4" />
  <sodipodi:namedview
     id="base"
     pagecolor="#ffffff"
     bordercolor="#666666"
     borderopacity="1.0"
     inkscape:pageopacity="0"
     inkscape:pageshadow="2"
     inkscape:zoom="0.98994949"
     inkscape:cx="356.23"
     inkscape:cy="33.940983"
     inkscape:document-units="px"
     inkscape:current-layer="layer1"
     showgrid="false"
     fit-margin-top="2"
     fit-margin-left="2"
     fit-margin-right="2"
     fit-margin-bottom="2"
     inkscape:window-width="1280"
     inkscape:window-height="1002"
     inkscape:window-x="1272"
     inkscape:window-y="-8"
     inkscape:window-maximized="1" />
  <metadata
     id="metadata7">
    <rdf:RDF>
      <cc:Work
         rdf:about="">
        <dc:format>image/svg+xml</dc:format>
        <dc:type
           rdf:resource="http://purl.org/dc/dcmitype/StillImage" />
        <dc:title></dc:title>
      </cc:Work>
    </rdf:RDF>
  </metadata>
  <g
     inkscape:label="Calque 1"
     inkscape:groupmode="layer"
     id="layer1"
     transform="translate(-2.5416543,62.953432)">
    <g
       id="g3371"
       transform="matrix(0.30836426,0,0,0.30836426,203.3104,37.199714)">
      <g
         id="#fdfdfdff">
        <path
           id="path3339"
           d="m 311.12,0 17.04,0 c 6.96,0.24 13.87,1.07 20.82,1.43 52.51,4.58 103.78,22.58 147.66,51.78 34.43,22.82 64.36,52.35 87.66,86.45 24.14,35.26 41.09,75.43 49.39,117.35 3.69,17.81 5.26,35.96 6.31,54.08 l 0,17.12 c -0.25,7.26 -1.14,14.46 -1.49,21.71 -3.92,42.5 -16.43,84.22 -36.77,121.76 -34.97,65.24 -93.34,117.61 -162.1,145.09 -22.68,9.22 -46.47,15.68 -70.66,19.38 -13.27,2.16 -26.69,2.91 -40.08,3.85 l -17.09,0 C 280.46,638.7 249.14,633.78 219.33,623.76 181.62,611.28 146.28,591.68 115.75,566.25 81.12,537.55 52.62,501.46 32.77,461.09 14.58,424 3.5,383.33 0.98,342.08 0.24,337.71 0.51,333.27 0,328.88 L 0,311.84 C 0.79,299.65 1.39,287.43 3.25,275.34 12.68,205.43 46.55,139.22 97.33,90.31 139.09,49.68 192.19,20.59 249.14,8.09 269.43,3.09 290.32,1.21 311.12,0 m -34.29,111.04 c 3.16,6.43 6.85,12.6 10.13,18.98 -19.43,9.77 -33.77,30.5 -32.66,52.69 43.8,0.08 87.61,0.03 131.41,0.02 0.28,-6.37 -0.16,-12.85 -2.42,-18.88 -4.91,-14.82 -16.4,-26.82 -30.11,-33.97 3.28,-6.34 6.91,-12.5 10.14,-18.86 1.19,-3.04 -3.89,-4.22 -4.73,-1.44 -3.28,6 -6.6,11.97 -9.68,18.06 -18.2,-7.12 -39.27,-7.71 -57.31,0.23 -3.81,-6.13 -6.82,-12.73 -10.52,-18.93 -1.3,-2.07 -5.49,-0.57 -4.25,2.1 m -45.47,74.47 c -4.56,0.96 -8.47,4.27 -10.34,8.51 -1.45,3.11 -1.14,6.64 -1.17,9.98 0.02,17.35 0.01,34.7 0,52.06 0.02,3.89 -0.35,8.07 1.63,11.6 2.65,5.23 8.63,8.45 14.47,7.78 7.28,-0.48 13.22,-7.2 13.2,-14.44 0,-20.69 0.12,-41.4 -0.06,-62.1 -0.3,-8.65 -9.31,-15.51 -17.73,-13.39 m 170.11,0.21 c -6.22,1.73 -10.71,7.85 -10.63,14.29 -0.05,20 0.02,40.01 -0.03,60.02 -0.13,4.72 1.88,9.52 5.69,12.41 5.61,4.59 14.64,3.94 19.55,-1.38 2.92,-2.86 4.25,-6.99 4.1,-11.02 -0.06,-20.36 0.07,-40.73 -0.06,-61.09 -0.14,-9.03 -10.03,-16 -18.62,-13.23 m -147.19,20.3 c 0,26.01 0.01,52.02 0,78.04 -0.29,7.43 6.43,14.02 13.76,14.19 4.39,0.09 8.79,-0.03 13.19,0.02 0.1,11.55 -0.08,23.1 0.08,34.64 0.39,7.41 7.31,13.6 14.69,13.37 7.59,0.12 14.54,-6.61 14.45,-14.25 0.03,-11.25 0.01,-22.5 0.01,-33.75 6.46,-0.02 12.92,-0.02 19.38,0 0.05,10.57 0,21.15 0.02,31.73 -0.02,3.13 0.36,6.38 2.09,9.08 3.34,5.98 11.24,8.75 17.61,6.28 5.99,-1.94 9.77,-8.21 9.71,-14.36 0.02,-10.91 -0.02,-21.82 0.01,-32.73 4.56,-0.1 9.13,0.15 13.69,-0.1 7.02,-0.57 13.07,-7.04 12.83,-14.14 0,-32.07 0.02,-64.15 -0.01,-96.23 -43.77,-0.16 -87.53,0.08 -131.29,-0.11 -0.48,6.09 -0.09,12.21 -0.22,18.32 M 173.8,390.78 c -0.11,-4.17 -0.04,-8.33 -0.06,-12.49 -5.61,-0.01 -11.22,0 -16.83,-0.01 -0.04,48.16 -0.03,96.31 0,144.47 5.61,-0.02 11.22,0 16.83,-0.01 0.04,-15.18 -0.08,-30.36 0.06,-45.53 9.08,8.9 21.51,14.16 34.2,14.63 17.27,0.89 34.72,-6.74 45.72,-20.09 8.86,-10.43 13.62,-24.08 13.65,-37.72 -0.05,-13.18 -4.47,-26.37 -12.76,-36.66 -10.35,-13.16 -26.84,-21.29 -43.6,-21.19 -13.69,-0.33 -27.44,4.97 -37.21,14.6 m 125.27,-1.68 c -12.89,10.67 -20.63,27.19 -20.65,43.91 -0.28,13.09 3.94,26.25 11.94,36.63 10.56,14.06 28.04,22.57 45.63,22.09 13.35,0.05 26.45,-5.44 36.09,-14.62 0.1,4.14 0.02,8.28 0.07,12.43 5.52,-0.03 11.05,-0.03 16.58,-0.01 0.02,-37.08 0.02,-74.16 0,-111.24 -5.53,-0.01 -11.06,0 -16.59,-0.01 -0.03,3.94 0.01,7.88 -0.03,11.82 -2.2,-0.62 -3.57,-2.59 -5.41,-3.81 -19.62,-14.83 -49.12,-12.99 -67.63,2.81 m 99.45,-10.82 c 15.07,34.68 29.9,69.46 44.96,104.14 0.52,1.42 1.7,3.05 0.56,4.54 -2.5,5.52 -4.54,11.67 -9.59,15.46 -5.18,4.45 -12.31,4.74 -18.78,4.48 -0.05,5.62 -0.1,11.25 0.03,16.87 7.39,0.15 15.05,-0.03 21.87,-3.21 9.68,-4.12 16.73,-12.8 20.68,-22.36 17.22,-39.97 34.5,-79.92 51.74,-119.88 -6.32,-0.06 -12.64,-0.05 -18.95,0 -7.17,17.12 -14.33,34.24 -21.46,51.38 -5.18,11.94 -9.73,24.16 -15.28,35.93 -3.06,-8.4 -6.81,-16.53 -10.14,-24.82 -8.74,-20.84 -17.31,-41.76 -26.15,-62.55 -6.5,0.05 -12.99,0.02 -19.49,0.02 z"
           inkscape:connector-curvature="0"
           style="opacity:1;fill:#fdfdfd" />
        <path
           id="path3341"
           d="m 288.31,147.45 c 4.62,-1.7 9.66,3.71 7.39,8.11 -1.19,3.5 -6.02,5.08 -8.98,2.77 -4.16,-2.45 -3.15,-9.71 1.59,-10.88 z"
           inkscape:connector-curvature="0"
           style="opacity:1;fill:#fdfdfd" />
        <path
           id="path3343"
           d="m 348.29,147.41 c 4.42,-1.41 8.88,3.1 7.48,7.52 -1,5.18 -8.96,6.04 -11.12,1.26 -2.09,-3.22 0.08,-7.82 3.64,-8.78 z"
           inkscape:connector-curvature="0"
           style="opacity:1;fill:#fdfdfd" />
        <path
           id="path3345"
           d="m 202.08,393.07 c 10.18,-1.81 21.01,0.43 29.58,6.22 10.37,6.79 17.34,18.45 18.44,30.79 1.18,11.15 -2.57,22.64 -9.88,31.09 -7.63,9.01 -19.32,14.51 -31.16,14.34 -12.8,0.04 -25.8,-5.94 -33.24,-16.53 -0.97,-1.5 -2.21,-3.08 -2.08,-4.96 0.01,-13.33 0,-26.67 0,-40 -0.15,-1.92 1.08,-3.51 2.12,-4.99 6.16,-8.54 15.88,-14.23 26.22,-15.96 z"
           inkscape:connector-curvature="0"
           style="opacity:1;fill:#fdfdfd" />
        <path
           id="path3347"
           d="m 326.43,393.62 c 12.39,-3.15 26.2,-0.29 36.29,7.59 3.95,3.4 8.27,7.44 9.32,12.75 0.22,12.67 0.03,25.35 0.09,38.03 0.29,4.3 -2.91,7.58 -5.59,10.5 -8.23,8.79 -20.45,13.62 -32.47,12.86 -12.28,-0.64 -24.1,-7.26 -31.09,-17.37 -5.98,-8.33 -8.63,-18.93 -7.41,-29.1 1.84,-16.59 14.61,-31.32 30.86,-35.26 z"
           inkscape:connector-curvature="0"
           style="opacity:1;fill:#fdfdfd" />
      </g>
      <g
         id="#78c257ff">
        <path
           id="path3350"
           d="m 276.83,111.04 c -1.24,-2.67 2.95,-4.17 4.25,-2.1 3.7,6.2 6.71,12.8 10.52,18.93 18.04,-7.94 39.11,-7.35 57.31,-0.23 3.08,-6.09 6.4,-12.06 9.68,-18.06 0.84,-2.78 5.92,-1.6 4.73,1.44 -3.23,6.36 -6.86,12.52 -10.14,18.86 13.71,7.15 25.2,19.15 30.11,33.97 2.26,6.03 2.7,12.51 2.42,18.88 -43.8,0.01 -87.61,0.06 -131.41,-0.02 -1.11,-22.19 13.23,-42.92 32.66,-52.69 -3.28,-6.38 -6.97,-12.55 -10.13,-18.98 m 11.48,36.41 c -4.74,1.17 -5.75,8.43 -1.59,10.88 2.96,2.31 7.79,0.73 8.98,-2.77 2.27,-4.4 -2.77,-9.81 -7.39,-8.11 m 59.98,-0.04 c -3.56,0.96 -5.73,5.56 -3.64,8.78 2.16,4.78 10.12,3.92 11.12,-1.26 1.4,-4.42 -3.06,-8.93 -7.48,-7.52 z"
           inkscape:connector-curvature="0"
           style="opacity:1;fill:#78c257" />
        <path
           id="path3352"
           d="m 231.36,185.51 c 8.42,-2.12 17.43,4.74 17.73,13.39 0.18,20.7 0.06,41.41 0.06,62.1 0.02,7.24 -5.92,13.96 -13.2,14.44 -5.84,0.67 -11.82,-2.55 -14.47,-7.78 -1.98,-3.53 -1.61,-7.71 -1.63,-11.6 0.01,-17.36 0.02,-34.71 0,-52.06 0.03,-3.34 -0.28,-6.87 1.17,-9.98 1.87,-4.24 5.78,-7.55 10.34,-8.51 z"
           inkscape:connector-curvature="0"
           style="opacity:1;fill:#78c257" />
        <path
           id="path3354"
           d="m 401.47,185.72 c 8.59,-2.77 18.48,4.2 18.62,13.23 0.13,20.36 0,40.73 0.06,61.09 0.15,4.03 -1.18,8.16 -4.1,11.02 -4.91,5.32 -13.94,5.97 -19.55,1.38 -3.81,-2.89 -5.82,-7.69 -5.69,-12.41 0.05,-20.01 -0.02,-40.02 0.03,-60.02 -0.08,-6.44 4.41,-12.56 10.63,-14.29 z"
           inkscape:connector-curvature="0"
           style="opacity:1;fill:#78c257" />
        <path
           id="path3356"
           d="m 254.28,206.02 c 0.13,-6.11 -0.26,-12.23 0.22,-18.32 43.76,0.19 87.52,-0.05 131.29,0.11 0.03,32.08 0.01,64.16 0.01,96.23 0.24,7.1 -5.81,13.57 -12.83,14.14 -4.56,0.25 -9.13,0 -13.69,0.1 -0.03,10.91 0.01,21.82 -0.01,32.73 0.06,6.15 -3.72,12.42 -9.71,14.36 -6.37,2.47 -14.27,-0.3 -17.61,-6.28 -1.73,-2.7 -2.11,-5.95 -2.09,-9.08 -0.02,-10.58 0.03,-21.16 -0.02,-31.73 -6.46,-0.02 -12.92,-0.02 -19.38,0 0,11.25 0.02,22.5 -0.01,33.75 0.09,7.64 -6.86,14.37 -14.45,14.25 -7.38,0.23 -14.3,-5.96 -14.69,-13.37 -0.16,-11.54 0.02,-23.09 -0.08,-34.64 -4.4,-0.05 -8.8,0.07 -13.19,-0.02 -7.33,-0.17 -14.05,-6.76 -13.76,-14.19 0.01,-26.02 0,-52.03 0,-78.04 z"
           inkscape:connector-curvature="0"
           style="opacity:1;fill:#78c257" />
      </g>
      <g
         id="#757575ff">
        <path
           id="path3359"
           d="m 173.8,390.78 c 9.77,-9.63 23.52,-14.93 37.21,-14.6 16.76,-0.1 33.25,8.03 43.6,21.19 8.29,10.29 12.71,23.48 12.76,36.66 -0.03,13.64 -4.79,27.29 -13.65,37.72 -11,13.35 -28.45,20.98 -45.72,20.09 -12.69,-0.47 -25.12,-5.73 -34.2,-14.63 -0.14,15.17 -0.02,30.35 -0.06,45.53 -5.61,0.01 -11.22,-0.01 -16.83,0.01 -0.03,-48.16 -0.04,-96.31 0,-144.47 5.61,0.01 11.22,0 16.83,0.01 0.02,4.16 -0.05,8.32 0.06,12.49 m 28.28,2.29 c -10.34,1.73 -20.06,7.42 -26.22,15.96 -1.04,1.48 -2.27,3.07 -2.12,4.99 0,13.33 0.01,26.67 0,40 -0.13,1.88 1.11,3.46 2.08,4.96 7.44,10.59 20.44,16.57 33.24,16.53 11.84,0.17 23.53,-5.33 31.16,-14.34 7.31,-8.45 11.06,-19.94 9.88,-31.09 -1.1,-12.34 -8.07,-24 -18.44,-30.79 -8.57,-5.79 -19.4,-8.03 -29.58,-6.22 z"
           inkscape:connector-curvature="0"
           style="opacity:1;fill:#757575" />
        <path
           id="path3361"
           d="m 299.07,389.1 c 18.51,-15.8 48.01,-17.64 67.63,-2.81 1.84,1.22 3.21,3.19 5.41,3.81 0.04,-3.94 0,-7.88 0.03,-11.82 5.53,0.01 11.06,0 16.59,0.01 0.02,37.08 0.02,74.16 0,111.24 -5.53,-0.02 -11.06,-0.02 -16.58,0.01 -0.05,-4.15 0.03,-8.29 -0.07,-12.43 -9.64,9.18 -22.74,14.67 -36.09,14.62 -17.59,0.48 -35.07,-8.03 -45.63,-22.09 -8,-10.38 -12.22,-23.54 -11.94,-36.63 0.02,-16.72 7.76,-33.24 20.65,-43.91 m 27.36,4.52 c -16.25,3.94 -29.02,18.67 -30.86,35.26 -1.22,10.17 1.43,20.77 7.41,29.1 6.99,10.11 18.81,16.73 31.09,17.37 12.02,0.76 24.24,-4.07 32.47,-12.86 2.68,-2.92 5.88,-6.2 5.59,-10.5 -0.06,-12.68 0.13,-25.36 -0.09,-38.03 -1.05,-5.31 -5.37,-9.35 -9.32,-12.75 -10.09,-7.88 -23.9,-10.74 -36.29,-7.59 z"
           inkscape:connector-curvature="0"
           style="opacity:1;fill:#757575" />
        <path
           id="path3363"
           d="m 398.52,378.28 c 6.5,0 12.99,0.03 19.49,-0.02 8.84,20.79 17.41,41.71 26.15,62.55 3.33,8.29 7.08,16.42 10.14,24.82 5.55,-11.77 10.1,-23.99 15.28,-35.93 7.13,-17.14 14.29,-34.26 21.46,-51.38 6.31,-0.05 12.63,-0.06 18.95,0 -17.24,39.96 -34.52,79.91 -51.74,119.88 -3.95,9.56 -11,18.24 -20.68,22.36 -6.82,3.18 -14.48,3.36 -21.87,3.21 -0.13,-5.62 -0.08,-11.25 -0.03,-16.87 6.47,0.26 13.6,-0.03 18.78,-4.48 5.05,-3.79 7.09,-9.94 9.59,-15.46 1.14,-1.49 -0.04,-3.12 -0.56,-4.54 -15.06,-34.68 -29.89,-69.46 -44.96,-104.14 z"
           inkscape:connector-curvature="0"
           style="opacity:1;fill:#757575" />
      </g>
    </g>
    <g
       id="#000000ff"
       transform="matrix(0.15516496,0,0,0.15516496,119.17908,-57.300542)">
      <path
         id="path3391"
         d="m 204.02,17 c 8.84,-4.34 18.46,-7.21 28.31,-7.76 3.28,34.56 -20.32,69.54 -53.37,79.93 -6.67,2.15 -13.73,2.96 -20.72,2.63 -2.05,-16.76 3.9,-33.56 13.29,-47.27 8.03,-11.96 19.58,-21.29 32.49,-27.53 z"
         inkscape:connector-curvature="0"
         style="opacity:1;fill:#000000" />
      <path
         id="path3393"
         d="m 400.13,40.5 c 29.66,-4.99 59.92,-7.84 89.98,-5.31 23.47,2.18 47.56,9.3 65.29,25.49 14.43,13.63 23.32,32.7 25.22,52.4 1.54,15.96 0.43,32.4 -4.86,47.62 -7.13,20.03 -21.45,37.41 -39.81,48.15 -19.86,11.78 -43.14,16.44 -65.99,17.43 -15.67,0.45 -31.47,-0.13 -46.87,-3.21 0,46.36 0.01,92.71 0,139.06 -7.75,0.01 -15.5,0.01 -23.25,0 0,-106.76 -0.01,-213.51 0.01,-320.27 0.07,-0.34 0.21,-1.02 0.28,-1.36 m 22.97,16.89 c -0.02,48.47 -0.01,96.94 -0.01,145.41 12.01,3.29 24.52,4.07 36.91,4.27 18.32,0.28 37.09,-1.55 54.08,-8.83 13.96,-5.86 26.47,-15.86 33.85,-29.22 8.75,-15.73 10.69,-34.38 9.06,-52.05 C 555.42,100.08 547.73,83.4 534.26,72.78 518.1,59.94 497.17,54.84 476.9,53.76 458.92,53.13 440.8,54 423.1,57.39 Z"
         inkscape:connector-curvature="0"
         style="opacity:1;fill:#000000" />
      <path
         id="path3395"
         d="m 177.1,108.27 c 14.87,-5.56 29.86,-11.92 45.94,-12.67 17.68,-0.43 35.68,3.43 51.04,12.38 10.05,5.79 18.72,13.84 25.44,23.28 -13.86,8.51 -25.61,20.76 -32.72,35.47 -9.3,19.19 -9.4,42.28 -1.49,61.95 7.96,19.61 24.61,34.89 43.86,43.2 -6.4,19.39 -15.93,37.75 -27.99,54.23 -8.56,11.91 -17.46,24.07 -29.66,32.52 -8.84,6.19 -19.87,9.06 -30.61,7.85 -14.44,-1.05 -26.67,-9.93 -40.71,-12.6 -10.98,-2.2 -22.46,-1.8 -33.27,1.05 -11.6,3.03 -22.06,9.59 -34,11.42 -7.69,1.44 -15.85,1.01 -23.06,-2.19 C 78.55,359.34 69.71,350.33 61.86,341.11 49.14,325.6 37.58,308.99 29.2,290.71 15.36,260.87 6.99,227.93 8.56,194.88 9.76,170.21 17.85,145.2 34.69,126.71 50.68,108.84 73.96,97.6 97.98,96.73 c 8.14,-0.46 16.25,1.07 24.03,3.36 11.49,3.25 22.2,8.89 33.88,11.53 7.25,1.8 14.45,-0.98 21.21,-3.35 z"
         inkscape:connector-curvature="0"
         style="opacity:1;fill:#000000" />
      <path
         id="path3397"
         d="m 618.26,144.81 c 18.91,-13.07 41.87,-19.4 64.72,-19.75 16.73,-0.27 34.35,1.83 48.63,11.25 14.28,8.67 24.37,23.16 29.15,39.03 5.11,17.39 5.61,35.69 5.33,53.69 0.01,26.33 -0.01,52.66 0.01,78.98 0.2,18.08 -0.01,36.3 3.43,54.12 -7.25,0 -14.49,0 -21.74,0 -1.19,-11.06 -2.31,-22.14 -3.51,-33.2 -1.82,1.31 -3.01,3.24 -4.33,4.99 -12.38,15.87 -30.38,27.23 -50.06,31.47 -13.4,2.78 -27.46,2.83 -40.81,-0.28 -15.22,-3.82 -29.52,-12.8 -37.98,-26.23 -10.93,-16.98 -12.59,-38.73 -7.03,-57.87 3.6,-12.46 11.06,-23.7 20.88,-32.14 12.46,-10.93 27.94,-17.84 43.84,-22.08 24.09,-6.47 49.22,-7.78 74.06,-7.63 0.02,-16.81 -0.76,-34.58 -9.31,-49.54 -7.14,-12.67 -20.27,-21.77 -34.64,-24.03 -25.28,-4.1 -51.83,2.18 -73.22,16.09 -2.48,-5.62 -4.95,-11.25 -7.42,-16.87 m 50.52,102.01 c -13.1,4.42 -25.41,12.02 -34.02,22.97 -8.26,10.79 -10,25.1 -8.68,38.26 0.98,10.35 4.97,20.93 13.1,27.77 9.52,8.27 22.15,12.84 34.79,12.31 17.22,-0.12 34.73,-5.82 47.57,-17.53 12.27,-11.07 20.99,-26.82 21.31,-43.58 0.01,-16.33 -0.01,-32.67 0.01,-49 -24.87,-0.14 -50.36,0.54 -74.08,8.8 z"
         inkscape:connector-curvature="0"
         style="opacity:1;fill:#000000" />
      <path
         id="path3399"
         d="m 786.82,130.3 c 8.24,0 16.48,-0.01 24.73,0.01 16,40.02 32.02,80.04 48.03,120.06 6.9,17.5 14.31,34.82 20.36,52.65 3.28,9.51 6.25,19.14 9.43,28.69 2,-2.48 2.33,-5.78 3.47,-8.67 10.18,-32.02 22.92,-63.12 34.52,-94.63 12.31,-32.7 24.62,-65.41 36.93,-98.11 8.23,-0.01 16.47,0 24.71,0 -22.41,55.49 -44.85,110.98 -67.28,166.47 -16.36,41.18 -31.32,83.57 -56.51,120.41 -9.24,13.83 -21.19,25.69 -34.63,35.44 -9.06,6.82 -19.55,11.32 -29.9,15.78 -2.6,-6.33 -5.46,-12.55 -7.84,-18.97 14.52,-6.42 28.66,-14.33 40.03,-25.59 18.2,-18.1 33.27,-39.79 41.54,-64.22 2.3,-5.57 -0.84,-11.12 -2.8,-16.24 C 843.33,272.36 815.07,201.33 786.82,130.3 Z"
         inkscape:connector-curvature="0"
         style="opacity:1;fill:#000000" />
    </g>
    <g
       id="g3440"
       transform="matrix(0.6396995,0,0,0.6396995,541.48515,145.85433)">
      <g
         id="#5493d0ff">
        <path
           id="path3416"
           d="m 60.26,0 2.41,0 C 74.69,0.4 86.44,5.54 94.9,14.08 103.74,22.96 109,35.4 108.8,47.97 109.04,62.7 101.78,77.23 90.07,86.11 81.99,92.37 71.86,95.8 61.65,96 l -1.24,0 C 50.65,95.85 40.94,92.76 33.02,87.02 20.9,78.45 13.16,63.93 13.06,49.05 12.67,37.5 16.78,25.93 24.21,17.11 32.98,6.53 46.51,0.08 60.26,0 M 58.1,20.85 c -1.74,2.22 -2.57,4.97 -3.73,7.51 -6.1,13.98 -12.15,27.98 -18.31,41.93 2.8,0.25 7.37,1.87 8.38,-1.93 C 48.67,58.25 52.83,48.1 57.08,38 c 1.35,-3.14 2.36,-6.44 4.19,-9.36 5.07,13.39 10.88,26.47 16.28,39.73 0.96,3.78 5.48,2.18 8.25,1.98 C 78.5,53.8 71.62,37.07 64.02,20.66 c -1.97,-0.01 -4,-0.35 -5.92,0.19 z"
           inkscape:connector-curvature="0"
           style="opacity:1;fill:#5493d0" />
      </g>
      <g
         id="#2c2d2dff">
        <path
           id="path3419"
           d="m 139.91,15.28 c 2.52,-0.02 5.04,-0.03 7.56,-0.05 0,17.85 0.04,35.71 -0.03,53.57 9.34,0.01 18.68,-0.01 28.02,0 0,2.24 0.02,4.48 0.04,6.72 -11.83,0.08 -23.66,-0.05 -35.48,0.06 -0.26,-20.1 -0.05,-40.2 -0.11,-60.3 z"
           inkscape:connector-curvature="0"
           style="opacity:1;fill:#2c2d2d" />
        <path
           id="path3421"
           d="m 256.31,15.29 c 2.3,-0.02 4.59,-0.03 6.89,-0.04 0.02,20.07 -0.08,40.15 0.05,60.23 -2.33,0.04 -4.65,0.05 -6.98,0.06 0.07,-2.15 0.14,-4.29 0.23,-6.43 -2.5,2.75 -5.35,5.36 -8.97,6.51 -7.33,2.59 -16.33,0.11 -20.82,-6.37 -4.75,-6.68 -5.34,-15.57 -3.51,-23.36 1.64,-7.14 7.31,-13.53 14.72,-14.77 7,-1.62 14.24,1.74 18.55,7.26 -0.22,-7.7 -0.01,-15.4 -0.16,-23.09 m -19.71,23.3 c -7.09,4.31 -8.45,13.93 -6.47,21.38 1.35,5.52 6.1,10.28 11.96,10.54 5.54,0.5 10.78,-2.4 14.3,-6.53 0,-6.72 -0.12,-13.43 0.08,-20.15 -4.36,-5.98 -13.16,-9.21 -19.87,-5.24 z"
           inkscape:connector-curvature="0"
           style="opacity:1;fill:#2c2d2d" />
        <path
           id="path3423"
           d="m 277.44,17.37 c 3.02,-2.58 8.01,0.79 7.17,4.52 -0.46,3.19 -4.76,5 -7.26,2.85 -2.57,-1.68 -2.45,-5.72 0.09,-7.37 z"
           inkscape:connector-curvature="0"
           style="opacity:1;fill:#2c2d2d" />
        <path
           id="path3425"
           d="m 296.57,37.92 c 6.67,-6.74 17.25,-9.06 26.1,-5.64 4.78,1.75 8.15,6.53 8.21,11.62 0.16,10.55 0,21.1 0.07,31.65 -2.27,-0.01 -4.55,-0.02 -6.81,-0.03 0.07,-1.64 0.16,-3.28 0.26,-4.91 -6.22,6.48 -17.32,8.29 -24.63,2.64 -7.06,-5.22 -7.04,-17.29 0.17,-22.37 7.34,-5.27 18.3,-3.67 24.43,2.78 -0.45,-4.9 1.21,-11.18 -3.35,-14.63 -6.63,-4.64 -16.12,-2.11 -21.18,3.73 -1.08,-1.62 -2.17,-3.24 -3.27,-4.84 m 8.99,16.63 c -5.04,3.1 -5.48,11.17 -0.74,14.74 5.7,4.28 14.61,2.69 19.15,-2.59 0.61,-2.88 0.19,-5.88 0.31,-8.8 -4.53,-5.11 -12.77,-7.07 -18.72,-3.35 z"
           inkscape:connector-curvature="0"
           style="opacity:1;fill:#2c2d2d" />
        <path
           id="path3427"
           d="m 174,31.83 c 2.41,0 4.83,-0.02 7.25,-0.06 5.03,11.81 9.77,23.74 14.52,35.66 5.26,-11.65 9.65,-23.71 14.55,-35.52 2.51,-0.07 5.02,-0.09 7.54,-0.12 -7.33,17.38 -14.51,34.83 -21.77,52.24 -1.38,3.42 -3.7,6.68 -7.23,8.1 -3.39,1.55 -7.22,1.18 -10.78,0.55 0.36,-2.01 0.72,-4.03 1.06,-6.04 2.77,0.47 6.15,1.22 8.36,-1.07 2.29,-2.79 3.24,-6.39 4.84,-9.59 C 186.15,61.3 180.22,46.5 174,31.83 Z"
           inkscape:connector-curvature="0"
           style="opacity:1;fill:#2c2d2d" />
        <path
           id="path3429"
           d="m 276.67,31.83 c 2.26,0 4.52,0 6.79,-0.01 0.02,14.57 -0.06,29.14 0.04,43.71 -2.29,0 -4.58,0.01 -6.86,0.01 0.06,-14.57 0.01,-29.14 0.03,-43.71 z"
           inkscape:connector-curvature="0"
           style="opacity:1;fill:#2c2d2d" />
      </g>
      <g
         id="#fbfcfcff">
        <path
           id="path3432"
           d="m 58.1,20.85 c 1.92,-0.54 3.95,-0.2 5.92,-0.19 7.6,16.41 14.48,33.14 21.78,49.69 -2.77,0.2 -7.29,1.8 -8.25,-1.98 C 72.15,55.11 66.34,42.03 61.27,28.64 59.44,31.56 58.43,34.86 57.08,38 52.83,48.1 48.67,58.25 44.44,68.36 c -1.01,3.8 -5.58,2.18 -8.38,1.93 6.16,-13.95 12.21,-27.95 18.31,-41.93 1.16,-2.54 1.99,-5.29 3.73,-7.51 z"
           inkscape:connector-curvature="0"
           style="opacity:1;fill:#fbfcfc" />
      </g>
    </g>
    <g
       id="g3544"
       transform="matrix(0.39978827,0,0,0.39978827,53.040649,56.864526)">
      <g
         id="#fffffeff">
        <path
           id="path3515"
           d="m 42.25,41.24 c 2.47,-0.89 5.15,-0.56 7.72,-0.62 23.35,0.04 46.69,0.01 70.04,0.02 7.43,0.04 13.41,7.08 13.54,14.28 0.04,42.39 -0.02,84.78 0.03,127.16 0.18,7.08 -5.34,14.13 -12.55,14.74 -25.05,0.03 -50.09,-0.01 -75.14,0.02 -4.8,0.08 -9.33,-3.07 -11.48,-7.27 -2.29,-3.8 -1.73,-8.39 -1.77,-12.61 0.01,-40.66 -0.01,-81.32 0.01,-121.97 -0.13,-6.02 3.92,-11.78 9.6,-13.75 m 7.09,13.09 c -3.14,0.37 -5.05,3.69 -4.7,6.66 0.01,29.33 -0.01,58.65 0.01,87.97 -0.48,3.55 2.81,6.84 6.33,6.58 21.02,0.02 42.04,0 63.06,0.01 3.16,0.26 6.79,-2.11 6.59,-5.55 0.1,-30.02 0.05,-60.04 0.03,-90.05 0.26,-3.46 -3.28,-6.2 -6.58,-5.76 -21.58,0.12 -43.17,-0.15 -64.74,0.14 m -6.08,121.8 c -0.59,3.21 2.39,6.45 5.62,6.19 5.81,0.06 11.63,-0.12 17.43,0.08 1.77,-1.34 4.1,-2.83 3.96,-5.37 0.15,-3.3 -3.13,-5.91 -6.28,-5.73 -5.01,-0.02 -10.02,-0.09 -15.03,0.04 -2.73,-0.07 -5.28,2.1 -5.7,4.79 m 36.91,-4.95 c -3.77,1.83 -4.88,7.36 -1.36,10.02 3.22,3.29 9.14,1.01 9.91,-3.33 1.11,-4.53 -4.4,-9.08 -8.55,-6.69 m 20.21,0.26 c -2.04,0.23 -3.79,1.72 -4.51,3.61 -1.41,3.24 1.46,7.37 4.96,7.26 5.44,0.02 10.89,0.03 16.34,0 3.27,0.17 5.87,-3.19 5.25,-6.33 -0.2,-3.04 -3.54,-4.85 -6.34,-4.69 -5.23,0.07 -10.48,-0.21 -15.7,0.15 z"
           inkscape:connector-curvature="0"
           style="opacity:1;fill:#fffffe" />
        <path
           id="path3517"
           d="m 189.37,69.47 c 1.75,-2.36 4.67,-0.59 5.57,1.56 7.2,13.89 10.77,30.14 7.79,45.67 -1.31,7.86 -3.61,15.66 -7.37,22.71 -1.07,2.38 -4.88,1.9 -5.81,-0.38 -0.48,-2.12 0.97,-3.95 1.71,-5.83 6.2,-14.07 8.08,-30.36 3.59,-45.2 -1.4,-4.95 -3.36,-9.71 -5.71,-14.28 -0.78,-1.25 -1.26,-3.31 0.23,-4.25 z"
           inkscape:connector-curvature="0"
           style="opacity:1;fill:#fffffe" />
        <path
           id="path3519"
           d="m 175.51,79.41 c -1.28,-2.81 2.45,-4.91 4.85,-3.97 10.66,17.15 10.96,39.72 1.58,57.48 -2.11,3.23 -7.54,-0.07 -5.39,-3.35 4.73,-10.08 7.21,-21.49 5.18,-32.57 -1.02,-6.19 -3.52,-11.98 -6.22,-17.59 z"
           inkscape:connector-curvature="0"
           style="opacity:1;fill:#fffffe" />
        <path
           id="path3521"
           d="m 76.69,79.68 c 9.87,-6.47 25.71,-3.37 30.49,8.03 1.74,3.05 -0.35,7.68 -4.16,7.24 -3.63,0.33 -4.09,-3.87 -5.97,-5.97 -4.52,-4.75 -13.29,-4.54 -17.56,0.47 -1.87,1.99 -2.91,4.56 -4.11,6.97 5.97,0.26 12,-0.35 17.94,0.26 4.16,1.52 3.67,8.01 -0.61,8.88 -6.33,0.38 -12.68,0.01 -19.02,0.15 0.03,0.72 0.09,2.15 0.12,2.87 6.29,0.71 12.66,-0.11 18.97,0.33 4.47,0.87 4.62,7.78 0.19,8.84 -5.83,0.3 -11.68,-0.03 -17.52,0.13 1.48,3.94 4.02,7.78 8.02,9.48 4.4,1.8 10.09,1.13 13.45,-2.4 1.78,-2.43 2.7,-5.76 6.07,-6.42 2.84,0.63 5.7,3.08 4.55,6.29 -3.72,11.76 -19.28,15.8 -29.53,10.26 -6.53,-3.38 -10.35,-10.24 -12.07,-17.15 -3.34,0.59 -7.88,-0.94 -7.37,-5.08 0.25,-3.29 3.49,-3.95 6.14,-4.33 0.04,-0.67 0.12,-2.01 0.16,-2.68 -3.31,0.35 -7.14,-2.18 -6.22,-5.87 0.82,-3.29 4.44,-3.86 7.3,-3.64 1.6,-6.51 4.98,-12.93 10.74,-16.66 z"
           inkscape:connector-curvature="0"
           style="opacity:1;fill:#fffffe" />
        <path
           id="path3523"
           d="m 163.43,84.37 c 1.48,-1.66 4.11,-0.64 4.97,1.14 6.76,11.88 6.76,27.16 0.16,39.1 -1.67,2.76 -6.68,0.65 -5.46,-2.57 1.12,-3.64 2.9,-7.08 3.47,-10.9 1.91,-7.74 -0.34,-15.81 -3.84,-22.75 -0.83,-1.29 -0.55,-3.1 0.7,-4.02 z"
           inkscape:connector-curvature="0"
           style="opacity:1;fill:#fffffe" />
        <path
           id="path3525"
           d="m 151.51,90.62 c 1.25,-0.84 3.03,-0.33 3.86,0.87 3.99,6.64 4.81,15.06 2.2,22.36 -0.86,2.19 -1.61,5.22 -4.45,5.43 -1.52,-0.34 -3.26,-1.46 -2.99,-3.26 0.55,-3.01 2.17,-5.72 2.49,-8.79 0.79,-4.28 -0.85,-8.41 -2.55,-12.24 -1.04,-1.53 -0.08,-3.62 1.44,-4.37 z"
           inkscape:connector-curvature="0"
           style="opacity:1;fill:#fffffe" />
      </g>
      <g
         id="#ff7d00ff">
        <path
           id="path3528"
           d="m 16.41,0 207.51,0 c 8.19,2.07 15.07,8.88 16.08,17.44 l 0,206.09 c -1.84,8.41 -8.87,15.23 -17.44,16.47 L 16.54,240 C 8.26,238.33 1.5,231.56 0,223.22 L 0,15.56 C 2.25,7.84 8.61,1.88 16.41,0 m 25.84,41.24 c -5.68,1.97 -9.73,7.73 -9.6,13.75 -0.02,40.65 0,81.31 -0.01,121.97 0.04,4.22 -0.52,8.81 1.77,12.61 2.15,4.2 6.68,7.35 11.48,7.27 25.05,-0.03 50.09,0.01 75.14,-0.02 7.21,-0.61 12.73,-7.66 12.55,-14.74 -0.05,-42.38 0.01,-84.77 -0.03,-127.16 -0.13,-7.2 -6.11,-14.24 -13.54,-14.28 -23.35,-0.01 -46.69,0.02 -70.04,-0.02 -2.57,0.06 -5.25,-0.27 -7.72,0.62 m 147.12,28.23 c -1.49,0.94 -1.01,3 -0.23,4.25 2.35,4.57 4.31,9.33 5.71,14.28 4.49,14.84 2.61,31.13 -3.59,45.2 -0.74,1.88 -2.19,3.71 -1.71,5.83 0.93,2.28 4.74,2.76 5.81,0.38 3.76,-7.05 6.06,-14.85 7.37,-22.71 2.98,-15.53 -0.59,-31.78 -7.79,-45.67 -0.9,-2.15 -3.82,-3.92 -5.57,-1.56 m -13.86,9.94 c 2.7,5.61 5.2,11.4 6.22,17.59 2.03,11.08 -0.45,22.49 -5.18,32.57 -2.15,3.28 3.28,6.58 5.39,3.35 9.38,-17.76 9.08,-40.33 -1.58,-57.48 -2.4,-0.94 -6.13,1.16 -4.85,3.97 m -12.08,4.96 c -1.25,0.92 -1.53,2.73 -0.7,4.02 3.5,6.94 5.75,15.01 3.84,22.75 -0.57,3.82 -2.35,7.26 -3.47,10.9 -1.22,3.22 3.79,5.33 5.46,2.57 6.6,-11.94 6.6,-27.22 -0.16,-39.1 -0.86,-1.78 -3.49,-2.8 -4.97,-1.14 m -11.92,6.25 c -1.52,0.75 -2.48,2.84 -1.44,4.37 1.7,3.83 3.34,7.96 2.55,12.24 -0.32,3.07 -1.94,5.78 -2.49,8.79 -0.27,1.8 1.47,2.92 2.99,3.26 2.84,-0.21 3.59,-3.24 4.45,-5.43 2.61,-7.3 1.79,-15.72 -2.2,-22.36 -0.83,-1.2 -2.61,-1.71 -3.86,-0.87 z"
           inkscape:connector-curvature="0"
           style="opacity:1;fill:#ff7d00" />
        <path
           id="path3530"
           d="m 49.34,54.33 c 21.57,-0.29 43.16,-0.02 64.74,-0.14 3.3,-0.44 6.84,2.3 6.58,5.76 0.02,30.01 0.07,60.03 -0.03,90.05 0.2,3.44 -3.43,5.81 -6.59,5.55 -21.02,-0.01 -42.04,0.01 -63.06,-0.01 -3.52,0.26 -6.81,-3.03 -6.33,-6.58 -0.02,-29.32 0,-58.64 -0.01,-87.97 -0.35,-2.97 1.56,-6.29 4.7,-6.66 m 27.35,25.35 c -5.76,3.73 -9.14,10.15 -10.74,16.66 -2.86,-0.22 -6.48,0.35 -7.3,3.64 -0.92,3.69 2.91,6.22 6.22,5.87 -0.04,0.67 -0.12,2.01 -0.16,2.68 -2.65,0.38 -5.89,1.04 -6.14,4.33 -0.51,4.14 4.03,5.67 7.37,5.08 1.72,6.91 5.54,13.77 12.07,17.15 10.25,5.54 25.81,1.5 29.53,-10.26 1.15,-3.21 -1.71,-5.66 -4.55,-6.29 -3.37,0.66 -4.29,3.99 -6.07,6.42 -3.36,3.53 -9.05,4.2 -13.45,2.4 -4,-1.7 -6.54,-5.54 -8.02,-9.48 5.84,-0.16 11.69,0.17 17.52,-0.13 4.43,-1.06 4.28,-7.97 -0.19,-8.84 -6.31,-0.44 -12.68,0.38 -18.97,-0.33 -0.03,-0.72 -0.09,-2.15 -0.12,-2.87 6.34,-0.14 12.69,0.23 19.02,-0.15 4.28,-0.87 4.77,-7.36 0.61,-8.88 -5.94,-0.61 -11.97,0 -17.94,-0.26 1.2,-2.41 2.24,-4.98 4.11,-6.97 4.27,-5.01 13.04,-5.22 17.56,-0.47 1.88,2.1 2.34,6.3 5.97,5.97 3.81,0.44 5.9,-4.19 4.16,-7.24 -4.78,-11.4 -20.62,-14.5 -30.49,-8.03 z"
           inkscape:connector-curvature="0"
           style="opacity:1;fill:#ff7d00" />
        <path
           id="path3532"
           d="m 43.26,176.13 c 0.42,-2.69 2.97,-4.86 5.7,-4.79 5.01,-0.13 10.02,-0.06 15.03,-0.04 3.15,-0.18 6.43,2.43 6.28,5.73 0.14,2.54 -2.19,4.03 -3.96,5.37 -5.8,-0.2 -11.62,-0.02 -17.43,-0.08 -3.23,0.26 -6.21,-2.98 -5.62,-6.19 z"
           inkscape:connector-curvature="0"
           style="opacity:1;fill:#ff7d00" />
        <path
           id="path3534"
           d="m 80.17,171.18 c 4.15,-2.39 9.66,2.16 8.55,6.69 -0.77,4.34 -6.69,6.62 -9.91,3.33 -3.52,-2.66 -2.41,-8.19 1.36,-10.02 z"
           inkscape:connector-curvature="0"
           style="opacity:1;fill:#ff7d00" />
        <path
           id="path3536"
           d="m 100.38,171.44 c 5.22,-0.36 10.47,-0.08 15.7,-0.15 2.8,-0.16 6.14,1.65 6.34,4.69 0.62,3.14 -1.98,6.5 -5.25,6.33 -5.45,0.03 -10.9,0.02 -16.34,0 -3.5,0.11 -6.37,-4.02 -4.96,-7.26 0.72,-1.89 2.47,-3.38 4.51,-3.61 z"
           inkscape:connector-curvature="0"
           style="opacity:1;fill:#ff7d00" />
      </g>
    </g>
    <g
       id="#19a9b7ff"
       transform="matrix(0.52215472,0,0,0.52215472,435.64529,77.670194)">
      <path
         id="path3562"
         d="M 20.57,3.78 C 25.94,2.6 31.37,3.62 36.75,3.84 44.81,2.61 53.94,3.07 60.5,8.49 c 6.01,4.88 8.14,13.03 7.77,20.5 -0.41,9.15 1.62,19.34 -3.91,27.39 -5.26,8.33 -16.2,10.59 -25.37,9.26 -5.37,-1.1 -10.74,1.09 -16.13,0.12 C 15.64,65.21 8.42,61.36 5.09,54.73 0.71,46.88 2.7,37.63 2.24,29.08 1.82,22.14 3.53,14.64 8.67,9.67 11.83,6.42 16.16,4.58 20.57,3.78 m -6.58,20.21 c -0.4,6.98 -0.4,14.02 -0.01,20.99 0.19,4.28 3.42,7.59 7.34,8.89 -1.43,-4.16 -2.41,-8.5 -2.09,-12.93 0.38,-8.53 -1.18,-17.38 2.06,-25.54 -3.76,1.31 -7.1,4.4 -7.3,8.59 m 35.1,-8.7 c 1.53,4.4 2.47,9.01 2.18,13.68 -0.33,8.33 1.12,17.02 -2.25,24.93 3.9,-1.36 7.34,-4.54 7.42,-8.93 0.11,-6.96 0.14,-13.94 -0.02,-20.9 -0.13,-4.27 -3.57,-7.36 -7.33,-8.78 m -18.26,9.75 c -0.16,6.34 -0.13,12.68 -0.01,19.02 -0.04,3.39 1.89,6.27 4.26,8.51 2.29,-1.92 4.42,-4.41 4.38,-7.58 0.12,-6.34 0,-12.67 0.06,-19.01 0.12,-3.28 -0.9,-7 -3.95,-8.7 -3.37,0.7 -4.48,4.78 -4.74,7.76 z"
         inkscape:connector-curvature="0"
         style="opacity:1;fill:#19a9b7" />
      <path
         id="path3564"
         d="m 87.12,4.85 c 5.12,-1.67 10.61,-1.47 15.93,-1.62 6.81,-0.11 14.29,1.42 19.02,6.7 4.63,5.12 5.22,12.51 4.48,19.07 -0.77,6.15 -4.62,11.97 -10.41,14.45 -5.56,2.72 -11.89,2.33 -17.89,2.3 -0.11,6.4 0.22,12.81 -0.15,19.2 -0.27,0.24 -0.81,0.7 -1.08,0.94 -4.09,0.3 -8.2,0.06 -12.29,0.04 C 84.06,62.66 84.24,59.32 84.25,56.01 84.28,40.33 84.22,24.65 84.27,8.97 84,7.02 85.26,5.36 87.12,4.85 M 98.3,15.06 c -0.1,6.4 -0.03,12.8 -0.05,19.19 4.81,-0.14 10.42,0.79 14.41,-2.53 4.31,-4.55 3.41,-14.07 -3.09,-16.14 -3.67,-1 -7.53,-0.5 -11.27,-0.52 z"
         inkscape:connector-curvature="0"
         style="opacity:1;fill:#19a9b7" />
      <path
         id="path3566"
         d="m 309.2,3.36 c 3.85,-0.23 7.73,-0.23 11.58,0.02 0.21,0.21 0.63,0.62 0.84,0.83 0.32,10.78 0.04,21.59 0.12,32.38 4.29,-5.67 8.51,-11.4 12.82,-17.06 0.91,-1.01 1.8,-2.53 3.37,-2.47 3.95,-0.18 7.91,-0.05 11.87,0 -1.19,3.14 -3.55,5.59 -5.49,8.26 -4.08,5.32 -8.05,10.73 -12.13,16.05 5.17,6.96 10.38,13.9 15.62,20.81 0.9,1.11 1.59,2.39 1.83,3.82 -4.5,-0.53 -9.67,1.22 -13.73,-1.11 -4.95,-5.99 -9.33,-12.45 -14.15,-18.55 -0.03,5.57 0.03,11.15 0.01,16.72 0.07,1.07 -0.11,2.99 -1.62,2.83 -4.06,0.08 -8.27,0.64 -12.21,-0.58 0.15,-19.47 0.04,-38.94 0.05,-58.41 0.17,-1.25 -0.46,-3.13 1.22,-3.54 z"
         inkscape:connector-curvature="0"
         style="opacity:1;fill:#19a9b7" />
      <path
         id="path3568"
         d="m 355.81,3.72 c 4.24,-0.75 8.6,-0.59 12.88,-0.31 2.19,2.54 0.89,6.71 0.53,9.84 -4.12,-0.08 -8.25,0.18 -12.36,-0.11 -2.27,-2.39 -0.67,-6.39 -1.05,-9.42 z"
         inkscape:connector-curvature="0"
         style="opacity:1;fill:#19a9b7" />
      <path
         id="path3570"
         d="m 134.08,17.1 c 3.65,-0.23 7.31,-0.14 10.97,-0.07 1.73,-0.31 2.18,1.62 1.96,2.92 0.01,8.02 -0.03,16.04 -0.02,24.07 0.05,3.18 0.46,6.88 3.16,8.98 2.68,1.92 6.87,1.8 9.18,-0.67 1.5,-1.6 1.96,-3.85 2.24,-5.95 0.69,-9.68 -0.46,-19.48 0.56,-29.12 4.35,-0.58 8.76,-0.16 13.14,-0.22 0.52,8.97 0.08,17.97 0.25,26.96 0.15,6.87 -2.31,14.32 -8.13,18.4 -5.76,3.86 -13.24,4.27 -19.85,2.78 C 142.03,63.96 137.32,59.91 135.17,54.71 132.36,48.19 133.09,40.92 133,34 c 0.11,-5.3 -0.23,-10.61 0.15,-15.9 0.23,-0.25 0.7,-0.75 0.93,-1 z"
         inkscape:connector-curvature="0"
         style="opacity:1;fill:#19a9b7" />
      <path
         id="path3572"
         d="m 192.89,18.85 c 7.87,-3.15 17.51,-2.64 24.5,2.41 6.76,-4.93 16.05,-5.47 23.78,-2.71 7.84,2.91 11.65,11.58 11.76,19.48 0.06,8.94 0.23,17.9 -0.07,26.83 -0.23,0.24 -0.67,0.74 -0.89,0.99 -3.96,0.28 -7.95,0.28 -11.9,0 -0.23,-0.24 -0.69,-0.73 -0.92,-0.98 -0.39,-8.96 0,-17.95 -0.16,-26.93 -0.07,-2.64 -0.6,-5.45 -2.4,-7.49 -2.71,-2.55 -7.5,-2.61 -10.04,0.2 -2.09,2.61 -2.21,6.12 -2.3,9.31 0.02,8.44 -0.07,16.89 0.06,25.34 -3.33,1.18 -6.93,0.64 -10.39,0.71 -1.16,-0.14 -3.01,0.24 -3.32,-1.32 -0.28,-8.54 0.02,-17.11 -0.11,-25.67 -0.13,-2.83 -0.36,-5.93 -2.26,-8.19 -2.63,-3.26 -8.56,-3.1 -10.76,0.56 -1.66,2.52 -1.74,5.66 -1.74,8.58 0.03,7.35 0.01,14.7 0.04,22.05 -0.08,1.29 0.18,2.79 -0.85,3.79 -3.95,0.33 -7.94,0.32 -11.89,0.06 -1.68,-0.46 -1.09,-2.62 -1.29,-3.88 0.1,-8.32 -0.18,-16.65 0.16,-24.97 0.35,-7.31 3.88,-15.2 10.99,-18.17 z"
         inkscape:connector-curvature="0"
         style="opacity:1;fill:#19a9b7" />
      <path
         id="path3574"
         d="m 263.15,18.11 c 5.52,-1.36 11.26,-1.14 16.9,-1.1 8.13,0.14 16.3,4.91 19.45,12.58 2.79,6.83 2.89,14.66 0.76,21.68 -1.81,5.86 -6.35,10.73 -12.08,12.91 -4.79,2.03 -10.08,1.88 -15.18,1.83 -0.01,4.42 0.02,8.83 -0.03,13.25 -4.57,0.33 -9.18,0.47 -13.73,-0.08 0.04,-19.08 -0.02,-38.17 0.02,-57.26 -0.44,-2.34 2.12,-3.28 3.89,-3.81 M 273,28.78 c 0,8.49 0,16.98 0,25.47 3.98,-0.17 8.33,0.73 11.96,-1.34 3.48,-1.89 4.83,-6.08 5.03,-9.81 0.25,-4.3 -0.26,-9.35 -3.82,-12.29 -3.69,-3 -8.76,-2.33 -13.17,-2.03 z"
         inkscape:connector-curvature="0"
         style="opacity:1;fill:#19a9b7" />
      <path
         id="path3576"
         d="m 355.73,20.95 c 0.2,-1.26 -0.46,-3.44 1.28,-3.83 4.05,-0.33 8.13,-0.02 12.2,-0.14 0.36,1.63 0.59,3.3 0.56,4.98 -0.04,13.36 -0.03,26.72 0,40.08 -0.08,1.28 0.16,2.76 -0.83,3.77 -3.97,0.34 -7.97,0.3 -11.94,0.08 -1.69,-0.61 -1.13,-2.56 -1.27,-3.93 0.03,-13.67 0.03,-27.34 0,-41.01 z"
         inkscape:connector-curvature="0"
         style="opacity:1;fill:#19a9b7" />
      <path
         id="path3578"
         d="m 387.43,18.68 c 6.71,-2.5 14.65,-2.49 21.13,0.74 7.04,3.66 9.89,12.03 9.93,19.54 -0.08,8.65 0.23,17.32 -0.15,25.96 l -0.5,0.72 c -4.14,0.62 -8.54,0.63 -12.68,-0.01 l -0.5,-0.7 c -0.47,-9.46 0.09,-18.96 -0.24,-28.43 -0.3,-2.93 -1.46,-6.46 -4.58,-7.43 -2.85,-1.26 -6.59,-0.36 -8.27,2.32 -1.49,2.24 -1.58,5.01 -1.78,7.6 -0.22,8.59 0.18,17.21 -0.15,25.8 -0.19,0.25 -0.57,0.75 -0.76,1.01 -4.29,0.24 -8.77,0.74 -12.95,-0.5 0.2,-9.49 -0.06,-18.98 0.12,-28.46 0.31,-7.43 4.16,-15.29 11.38,-18.16 z"
         inkscape:connector-curvature="0"
         style="opacity:1;fill:#19a9b7" />
    </g>
    <g
       id="g3741"
       transform="matrix(0.31813351,0,0,0.31813351,9.6282685,227.92865)">
      <g
         id="#ffffffff" />
      <g
         id="#14299fff">
        <path
           id="path3715"
           d="m 25.32,0 11.39,0 c 7.57,0.8 16.05,2.98 20.43,9.79 3.63,5.22 3.09,11.83 3.2,17.85 -7.29,0.23 -14.59,0.13 -21.89,0.05 C 38.41,24.6 39,21.28 37.57,18.4 34.6,12.86 24.47,13.59 23.02,20.01 c -1.19,3.8 0.76,7.79 3.96,9.91 8.32,5.98 18.29,9.3 26.28,15.81 4.72,3.65 8.54,8.97 8.88,15.1 0.44,7.83 0.33,16.77 -5.3,22.92 -6,6.52 -15.35,8.21 -23.82,8.51 C 24.18,92.41 14.57,91.3 7.47,85.54 3.06,81.92 0.58,76.41 0,70.8 L 0,60.35 c 7.76,0.35 15.53,0.04 23.3,0.16 0.09,3.78 -0.58,7.71 0.55,11.39 1.9,4.8 8.38,5.67 12.6,3.64 3.73,-1.89 4.41,-6.75 3.51,-10.44 C 38.81,61.58 35.65,59.32 32.72,57.33 24.05,51.65 13.91,48 6.55,40.47 -0.67,33.64 -0.93,22.14 2.51,13.4 6.3,4.48 16.36,0.89 25.32,0 Z"
           inkscape:connector-curvature="0"
           style="opacity:1;fill:#14299f" />
        <path
           id="path3717"
           d="m 284.55,10.39 c 4.41,-6.26 12.25,-8.85 19.53,-9.73 4.61,0.46 9.22,0.46 13.81,-0.2 7.26,1.18 15.47,3.59 19.32,10.47 3.19,5.08 2.46,11.27 2.62,16.97 -7.21,0.23 -14.43,0.16 -21.64,0.04 -0.06,-3.54 0.81,-7.63 -1.68,-10.59 -2.67,-2.62 -7.15,-3.01 -10.39,-1.24 -2.76,1.41 -3.73,4.93 -3.29,7.81 0.24,3.15 2.88,5.29 5.25,7 8.86,5.9 19.3,9.42 27.12,16.84 3.69,3.41 6.29,8.12 6.53,13.2 0.69,8.11 0.05,17.52 -6.27,23.44 -7.37,6.73 -17.98,7.7 -27.5,7.33 -8.68,-0.37 -18.26,-2.79 -23.71,-10.09 -4.57,-6.12 -4.49,-14.18 -4.18,-21.45 7.68,0.09 15.36,0.08 23.04,0 0.38,3.59 -0.21,7.22 0.41,10.78 2.03,6.82 13.58,7.2 16.04,0.5 1.39,-3.68 0.47,-7.96 -2.44,-10.62 -5.68,-5.38 -13.14,-8.2 -19.7,-12.3 -6.56,-3.91 -13.68,-8.76 -15.88,-16.52 -1.89,-7.18 -1.17,-15.38 3.01,-21.64 z"
           inkscape:connector-curvature="0"
           style="opacity:1;fill:#14299f" />
        <path
           id="path3719"
           d="m 546.69,8.66 c 5.88,-6.4 15.03,-8.14 23.35,-8.38 8.41,-0.09 17.56,0.89 24.36,6.34 4.81,3.73 7.17,9.77 7.6,15.71 l 0,7.89 c -7.26,-0.01 -14.51,0.16 -21.76,-0.09 -0.12,-3.33 0.29,-6.87 -1.11,-9.99 -3.41,-6.71 -15.78,-5.09 -16.27,2.87 -0.8,12.98 -0.13,26.01 -0.37,39.01 0.21,3.63 -0.48,8.14 2.67,10.75 4.94,4.35 15.43,1.82 15.07,-5.72 0.04,-4.62 0.12,-9.25 -0.16,-13.87 -2.83,0.06 -5.65,0.08 -8.46,0.11 -0.23,-4.33 -0.08,-8.66 -0.15,-12.99 10.18,-0.13 20.36,-0.01 30.54,-0.07 l 0,29.57 c -0.7,9.32 -8.11,16.88 -16.98,19.06 -10.42,2.61 -22.01,2.58 -31.92,-1.92 -7.27,-3.31 -11.87,-10.95 -12.02,-18.85 -0.31,-13.36 -0.01,-26.73 -0.14,-40.09 -0.11,-6.78 0.99,-14.16 5.75,-19.34 z"
           inkscape:connector-curvature="0"
           style="opacity:1;fill:#14299f" />
        <path
           id="path3721"
           d="m 91.93,2.8 c 12.93,0.04 25.89,-0.3 38.81,0.17 5.01,28.73 10.73,57.34 15.7,86.08 -7.8,-0.04 -15.6,0.03 -23.39,-0.04 C 119.18,62.96 115.47,36.87 111.5,10.83 107.13,36.84 103.66,63 99.46,89.04 91.62,89.01 83.78,89.09 75.95,89 81.34,60.28 86.61,31.53 91.93,2.8 Z"
           inkscape:connector-curvature="0"
           style="opacity:1;fill:#14299f" />
        <path
           id="path3723"
           d="m 165.17,2.96 c 11.63,-0.45 23.3,-0.14 34.95,-0.17 l 0.59,0.41 c 3.38,20.57 6.62,41.17 9.94,61.75 0.2,1.08 0.5,2.14 0.9,3.18 3.29,-21.81 6.99,-43.56 10.47,-65.33 11.81,-0.1 23.62,-0.02 35.43,-0.04 0.43,28.75 1.41,57.49 1.78,86.25 -7.23,0.06 -14.46,0.02 -21.7,0.03 -0.12,-15.68 -0.41,-31.35 -0.31,-47.04 -0.79,-10.04 0.41,-20.19 -0.74,-30.18 -4.09,24.8 -9.16,49.43 -13.51,74.18 -0.41,0.99 0.02,3.42 -1.8,3 -6.98,0.04 -13.97,0.16 -20.95,-0.09 -3.85,-21.65 -8.04,-43.24 -12.02,-64.87 -0.93,-4.3 -1.33,-8.73 -2.77,-12.91 0.13,15.27 0.21,30.57 -0.19,45.84 -0.12,10.68 0.3,21.38 -0.24,32.05 -7.26,0 -14.53,0.11 -21.79,-0.06 0.88,-28.65 1.45,-57.34 1.96,-86 z"
           inkscape:connector-curvature="0"
           style="opacity:1;fill:#14299f" />
        <path
           id="path3725"
           d="m 361.76,2.78 c 7.35,0.03 14.7,-0.19 22.04,0.11 -0.09,21.69 -0.02,43.39 -0.04,65.08 -0.39,5.79 6.44,9.33 11.41,7.26 3.06,-0.94 5.24,-4.04 5.07,-7.24 -0.02,-21.71 0.04,-43.43 -0.03,-65.14 7.46,0.01 14.99,-0.51 22.41,0.27 -0.29,20.65 0.03,41.32 -0.16,61.97 -0.08,6.32 -0.95,13.15 -5.4,18 -5.72,6.46 -14.82,8.09 -23.04,8.39 -8.01,0.13 -16.57,-0.59 -23.42,-5.15 -5.99,-3.97 -8.87,-11.3 -8.85,-18.3 0.01,-21.75 -0.02,-43.5 0.01,-65.25 z"
           inkscape:connector-curvature="0"
           style="opacity:1;fill:#14299f" />
        <path
           id="path3727"
           d="m 445.99,2.76 c 10.7,0.04 21.4,-0.12 32.09,0.08 0.84,1.02 0.93,2.42 1.37,3.63 5.73,19.84 11.67,39.63 17.39,59.47 0.36,1.38 0.91,2.7 1.57,3.96 -0.63,-22.34 -0.9,-44.7 -1.21,-67.05 7.2,-0.13 14.42,-0.23 21.62,0.05 -0.1,28.35 -0.08,56.7 -0.01,85.04 -10.3,0.11 -20.6,0.23 -30.89,-0.05 -7.62,-23.14 -13.93,-46.86 -21.67,-70.01 0.52,23.38 0.92,46.77 1.21,70.15 -7.16,-0.01 -14.32,0.02 -21.48,-0.02 -0.01,-28.41 -0.03,-56.83 0.01,-85.25 z"
           inkscape:connector-curvature="0"
           style="opacity:1;fill:#14299f" />
        <path
           id="path3729"
           d="m 174.15,135.36 c 14.25,-4.32 30.44,-1.73 42.65,6.81 12.12,8.56 20.74,22.19 22.43,37.03 2.4,17.66 -4.28,36.58 -17.98,48.16 -8.82,7.69 -20.5,12.28 -32.26,11.93 -10.88,0.2 -22.48,-3.17 -29.9,-11.51 -0.11,15.74 -0.02,31.48 -0.05,47.22 l -22.27,0 c -0.08,-46.45 0.08,-92.89 -0.09,-139.34 7.6,-0.37 15.21,-0.11 22.81,-0.13 -0.02,2.96 0,5.92 0.13,8.87 4.17,-3.95 8.88,-7.52 14.53,-9.04 m 4.25,19.17 c -6.59,1.75 -12.26,6.29 -15.84,12.03 -4.96,8.48 -5.67,18.83 -4.02,28.35 1.22,7.01 4.43,13.97 10.16,18.41 5.6,4.6 13.11,6.12 20.2,5.83 9.94,-0.51 19.27,-6.64 23.94,-15.38 4.76,-8.78 5.1,-19.46 2.39,-28.93 -2.09,-7.29 -6.84,-13.9 -13.48,-17.68 -7,-4.01 -15.62,-4.8 -23.35,-2.63 z"
           inkscape:connector-curvature="0"
           style="opacity:1;fill:#14299f" />
        <path
           id="path3731"
           d="m 275.34,142.28 c 11.69,-8.22 27.03,-11 40.88,-7.48 6.53,1.51 12.47,5.18 16.69,10.39 0.05,-3.22 0.06,-6.44 0.05,-9.66 7.51,-0.08 15.01,-0.03 22.52,-0.03 0.03,33.99 0.04,67.99 0,101.98 -7.44,-0.06 -14.9,0.24 -22.33,-0.15 0.08,-3.12 0.27,-6.26 -0.12,-9.36 -7.46,8.3 -19.14,11.56 -30.01,11.31 -12.22,0.34 -24.3,-4.77 -33.19,-13.04 -11.46,-10.31 -17.71,-25.97 -17.1,-41.31 -0.05,-16.81 8.99,-33.01 22.61,-42.65 m 22.74,11.91 c -6.92,1.59 -13.09,5.94 -16.97,11.88 -5.37,8.14 -6.59,18.45 -5.06,27.92 1.7,10.03 8.56,19.09 18.01,22.99 11.36,4.64 26.17,2.1 33.82,-7.98 5.45,-7.06 6.86,-16.35 6.62,-25.04 -0.3,-9.1 -3.52,-18.76 -10.97,-24.48 -7,-5.71 -16.76,-7.32 -25.45,-5.29 z"
           inkscape:connector-curvature="0"
           style="opacity:1;fill:#14299f" />
        <path
           id="path3733"
           d="m 368.93,135.43 c 7.91,0.11 15.82,0.09 23.73,0.01 8.65,19.47 16.93,39.12 25.41,58.67 1.88,4.12 3.34,8.45 5.69,12.35 9.65,-23.63 18.64,-47.54 28.5,-71.08 7.91,0.21 15.82,0.12 23.74,0.05 -1.44,4.52 -3.58,8.78 -5.35,13.17 C 452.77,190.73 435,232.91 417.03,275 l -23.45,0 c 5.97,-14.73 12.63,-29.17 18.7,-43.86 -14.36,-31.94 -29.31,-63.64 -43.35,-95.71 z"
           inkscape:connector-curvature="0"
           style="opacity:1;fill:#14299f" />
      </g>
    </g>
    <g
       id="g3836"
       transform="matrix(0.46994548,0,0,0.46994548,398.13253,-18.041435)">
      <g
         id="#008993ff">
        <path
           id="path3806"
           d="m 53.21,1.24 c 16.7,-3.07 34.53,1.27 48.22,11.23 11.04,7.95 19.32,19.54 23.42,32.5 3.84,12.99 3.7,27.22 -0.86,40.01 -5.51,15.83 -17.72,29.12 -32.88,36.19 -13.94,6.72 -30.33,7.65 -45.16,3.55 -12.55,-3.73 -24,-11.3 -32.06,-21.66 C 5.46,92.6 0.81,79.35 0.2,65.98 -0.33,49.08 6.05,32 17.91,19.89 27.25,10.08 39.84,3.41 53.21,1.24 M 39.29,36.3 c -2.15,1.41 -5.65,2.41 -5.34,5.63 -0.11,7.03 0.01,14.06 -0.05,21.09 0.14,1.59 -0.19,3.74 1.38,4.75 3.42,2.27 7.11,4.11 10.63,6.21 C 45.9,65.96 45.86,57.93 45.89,49.91 45.8,48.08 46.45,46.08 48.14,45.15 55.33,40.82 62.72,36.81 69.91,32.46 65.61,30.65 61.96,26.74 57.23,26.32 51,29.12 45.35,33.12 39.29,36.3 m 18.98,17 c -0.87,2.79 -0.25,5.84 -0.41,8.74 0.22,5.98 -0.54,12.04 0.57,17.97 4.2,-1.19 7.67,-3.97 11.47,-6 -0.02,-8.81 0.12,-17.62 -0.08,-26.43 -4.39,0.36 -7.95,3.47 -11.55,5.72 m 23.54,-0.01 c -0.03,8.25 0.08,16.51 -0.01,24.77 0.09,1.77 -0.74,3.53 -2.38,4.32 -7.18,4.16 -14.36,8.32 -21.56,12.44 4.07,2.19 7.94,4.73 12.14,6.68 6.63,-3.43 12.96,-7.39 19.48,-11.02 1.73,-1.14 4.44,-1.99 4.3,-4.53 0.14,-7.32 -0.02,-14.64 0.07,-21.96 -0.09,-1.5 0.21,-3.47 -1.3,-4.4 -3.41,-2.38 -7.17,-4.19 -10.74,-6.3 z"
           inkscape:connector-curvature="0"
           style="opacity:1;fill:#008993" />
      </g>
      <g
         id="#ffffffff-3">
        <path
           id="path3809"
           d="m 39.29,36.3 c 6.06,-3.18 11.71,-7.18 17.94,-9.98 4.73,0.42 8.38,4.33 12.68,6.14 -7.19,4.35 -14.58,8.36 -21.77,12.69 -1.69,0.93 -2.34,2.93 -2.25,4.76 -0.03,8.02 0.01,16.05 0.02,24.07 -3.52,-2.1 -7.21,-3.94 -10.63,-6.21 -1.57,-1.01 -1.24,-3.16 -1.38,-4.75 0.06,-7.03 -0.06,-14.06 0.05,-21.09 -0.31,-3.22 3.19,-4.22 5.34,-5.63 z"
           inkscape:connector-curvature="0"
           style="opacity:1;fill:#ffffff" />
        <path
           id="path3811"
           d="m 58.27,53.3 c 3.6,-2.25 7.16,-5.36 11.55,-5.72 0.2,8.81 0.06,17.62 0.08,26.43 -3.8,2.03 -7.27,4.81 -11.47,6 -1.11,-5.93 -0.35,-11.99 -0.57,-17.97 0.16,-2.9 -0.46,-5.95 0.41,-8.74 z"
           inkscape:connector-curvature="0"
           style="opacity:1;fill:#ffffff" />
        <path
           id="path3813"
           d="m 81.81,53.29 c 3.57,2.11 7.33,3.92 10.74,6.3 1.51,0.93 1.21,2.9 1.3,4.4 -0.09,7.32 0.07,14.64 -0.07,21.96 0.14,2.54 -2.57,3.39 -4.3,4.53 C 82.96,94.11 76.63,98.07 70,101.5 65.8,99.55 61.93,97.01 57.86,94.82 65.06,90.7 72.24,86.54 79.42,82.38 81.06,81.59 81.89,79.83 81.8,78.06 81.89,69.8 81.78,61.54 81.81,53.29 Z"
           inkscape:connector-curvature="0"
           style="opacity:1;fill:#ffffff" />
      </g>
      <g
         id="#323232ff">
        <path
           id="path3816"
           d="m 174.44,36.23 c 4.64,-4.37 10.08,-8.3 16.54,-9.28 8.26,-1.21 17.37,-0.44 24.14,4.92 9.15,6.97 12.66,19.05 12.7,30.13 0.38,9.43 -1.11,19.37 -6.48,27.34 -4.45,6.82 -12.07,11.6 -20.24,12.17 -9.67,1.2 -20.19,-1.54 -26.82,-9.01 1.43,10.29 0.71,20.69 0.96,31.04 -3.39,0.13 -6.78,0.16 -10.17,0.11 -0.01,-31.83 0.02,-63.66 -0.02,-95.49 2.45,-0.01 4.9,-0.02 7.35,-0.05 0.7,2.7 1.37,5.41 2.04,8.12 m 0.78,8.76 c -0.08,12.01 0,24.02 -0.05,36.03 -0.47,3.22 2.32,5.39 4.43,7.32 6.46,5.45 15.81,6.54 23.68,3.9 7.8,-3.07 12.34,-11.17 13.45,-19.16 1.53,-10.09 1.1,-21.34 -4.75,-30.08 -3.65,-5.56 -10.33,-8.86 -16.96,-8.43 -7.93,-0.28 -15.15,4.26 -19.8,10.42 z"
           inkscape:connector-curvature="0"
           style="opacity:1;fill:#323232" />
        <path
           id="path3818"
           d="m 242.8,31.06 c 7.58,-4.44 16.62,-4.8 25.16,-4.46 9.84,0.3 18.85,7.05 22.61,16.03 4.92,10.77 3.3,22.92 3.61,34.39 -0.28,7.77 0.59,15.61 -0.48,23.33 -2.38,-0.07 -4.76,-0.1 -7.13,-0.11 -0.7,-2.65 -1.35,-5.31 -1.99,-7.97 -6.37,7.79 -17.01,10.34 -26.67,9.3 -7.28,-0.33 -14.67,-3.55 -18.98,-9.59 -4.03,-5.6 -4.5,-13.01 -3.31,-19.61 1.72,-8.62 9.3,-15.29 17.83,-16.78 10.66,-2.13 23,0.2 30.51,8.55 -0.07,-7.84 0.55,-16.72 -5,-23.05 -5.48,-6.79 -15.02,-7.29 -23,-6.01 -4.66,0.51 -8.94,2.55 -12.92,4.9 -0.18,-2.97 -0.23,-5.94 -0.24,-8.92 m 12.66,32.69 c -11.18,2.6 -13.77,19.08 -5.28,26.04 5.13,4.35 12.34,4.23 18.64,3.53 6.29,-0.75 12.87,-4.72 14.35,-11.25 0.41,-3.22 0.91,-6.67 0.07,-9.82 -6.6,-7.8 -17.96,-11.08 -27.78,-8.5 z"
           inkscape:connector-curvature="0"
           style="opacity:1;fill:#323232" />
        <path
           id="path3820"
           d="m 396.94,36.9 c 5.42,-5.93 13.09,-9.86 21.17,-10.26 7.02,-0.43 15.04,-0.39 20.46,4.82 5.01,4.32 5.69,11.37 5.76,17.56 0,17.08 0.03,34.16 -0.02,51.23 -3.36,0 -6.73,0 -10.09,-0.03 -0.07,-17.73 0.08,-35.47 -0.06,-53.19 0.08,-4.87 -2.4,-10.14 -7.29,-11.71 -10.74,-3.02 -22.84,1.41 -29.31,10.46 0.06,18.16 0.09,36.33 -0.02,54.49 -3.35,-0.03 -6.71,-0.03 -10.06,0 -0.16,-24.04 0,-48.08 -0.09,-72.12 2.54,0.01 5.07,0.01 7.61,0 0.78,2.89 1.47,5.79 1.94,8.75 z"
           inkscape:connector-curvature="0"
           style="opacity:1;fill:#323232" />
        <path
           id="path3822"
           d="m 465.84,30.99 c 7.58,-4.38 16.6,-4.73 25.13,-4.39 9.54,0.32 18.35,6.68 22.22,15.32 3.17,6.19 3.88,13.24 3.98,20.1 0.01,11.01 -0.05,22.03 0.03,33.04 0.01,1.78 -0.24,3.53 -0.52,5.28 -2.38,-0.06 -4.76,-0.08 -7.14,-0.08 -0.82,-2.65 -1.5,-5.33 -2.08,-8.03 -6.24,7.87 -16.91,10.34 -26.51,9.35 -6.58,-0.32 -13.25,-2.84 -17.66,-7.86 -5.22,-5.75 -6.39,-14.29 -4.62,-21.65 1.71,-8.4 9.16,-14.9 17.45,-16.41 10.71,-2.26 23.11,0.08 30.71,8.41 0.17,-8.07 0.55,-17.24 -5.42,-23.56 -5.59,-6.27 -14.69,-6.64 -22.43,-5.44 -4.73,0.49 -9.04,2.64 -13.13,4.93 -0.01,-3 -0.01,-6 -0.01,-9.01 m 15.41,32.17 c -2.33,0.42 -4.73,0.93 -6.72,2.28 -8.88,5.67 -8.5,21.19 1.04,26.02 5.37,2.83 11.79,2.49 17.62,1.62 6.89,-1.11 13.45,-6.76 13.35,-14.14 -0.17,-2.68 0.95,-6.07 -1.48,-8 -6.14,-6.1 -15.27,-9.01 -23.81,-7.78 z"
           inkscape:connector-curvature="0"
           style="opacity:1;fill:#323232" />
        <path
           id="path3824"
           d="m 544.96,36.88 c 4.51,-5.42 10.84,-9.77 18.05,-10.24 5.21,-0.37 11.02,-0.34 15.32,3.07 2.7,1.74 4.17,4.67 5.62,7.43 5.57,-6.23 13.49,-10.99 22.08,-10.65 4.98,-0.22 10.24,1.02 13.81,4.69 4.63,4.61 5.62,11.55 5.55,17.8 -0.06,17.09 0.02,34.18 -0.04,51.27 -3.37,0 -6.74,0 -10.1,-0.01 -0.08,-15.08 -0.02,-30.16 -0.03,-45.25 -0.05,-4.72 0.3,-9.53 -0.91,-14.14 -1.03,-3.65 -4.49,-6.39 -8.32,-6.32 -8.31,-1.02 -16.38,4.2 -20.21,11.35 -0.36,18.12 0.04,36.26 -0.2,54.39 -3.38,-0.03 -6.75,-0.03 -10.12,-0.01 -0.14,-16.41 -0.05,-32.82 -0.05,-49.23 -0.08,-4.57 0.31,-9.81 -2.76,-13.57 -2.79,-3.44 -7.72,-3.23 -11.7,-2.76 -6.59,0.96 -11.79,5.81 -15.35,11.15 0.01,18.14 0.09,36.28 -0.04,54.42 -3.33,-0.03 -6.65,-0.03 -9.97,-0.02 -0.06,-24.03 -0.01,-48.07 -0.02,-72.11 2.5,0.01 5.01,0.02 7.53,0.02 0.71,2.88 1.39,5.78 1.86,8.72 z"
           inkscape:connector-curvature="0"
           style="opacity:1;fill:#323232" />
        <path
           id="path3826"
           d="m 641.89,44.86 c 3.95,-8.98 12.31,-15.9 21.98,-17.75 4.69,-0.8 9.52,-0.77 14.25,-0.24 8.98,1.09 17.18,7.65 19.66,16.43 2.63,7.59 2.15,15.75 0.72,23.52 -16.76,0.19 -33.54,-0.11 -50.31,0.09 0.05,8.68 3.15,18.24 10.83,23.06 6.13,4.12 13.93,3.98 20.97,3.14 4.94,-0.49 9.5,-2.52 14.19,-4.01 -0.51,3.1 1.65,8.65 -2.74,9.5 -9.67,3.36 -20.45,4.31 -30.36,1.45 -10.57,-3.19 -18.72,-12.39 -21.26,-23.04 -2.64,-10.55 -2.39,-22.13 2.07,-32.15 m 15.14,-5.67 c -6.04,4.9 -8.45,12.94 -8.9,20.45 14.04,0.08 28.08,0 42.12,0.04 0.55,-4.71 0.99,-9.62 -0.64,-14.17 -1.69,-5.58 -6.95,-9.62 -12.6,-10.54 -6.85,-1.06 -14.44,-0.3 -19.98,4.22 z"
           inkscape:connector-curvature="0"
           style="opacity:1;fill:#323232" />
        <path
           id="path3828"
           d="m 310.65,28.15 c 3.35,0 6.7,0 10.05,0.01 -0.04,15.96 0,31.92 -0.02,47.88 -0.08,5.44 1.89,11.61 7.07,14.23 10.5,5.33 24.55,0.63 30.27,-9.52 0.38,-17.51 0.07,-35.07 0.14,-52.6 3.47,0 6.94,0 10.41,0.01 -0.05,22.31 0.02,44.63 -0.03,66.94 -0.01,6.84 -1.97,13.77 -6.02,19.32 -4.84,6.36 -12.72,9.65 -20.49,10.57 -9.17,0.98 -18.58,0.08 -27.3,-3.01 -0.04,-2.98 -0.04,-5.96 -0.04,-8.94 8.2,3.54 17.36,4.85 26.21,3.76 6.83,-0.74 13.91,-4.82 16.07,-11.67 1.63,-5.21 1.28,-10.77 2.53,-16.06 -6.63,7.57 -16.78,12.28 -26.93,10.95 -7.16,-0.59 -14.67,-3.7 -18.43,-10.15 -3.44,-5.29 -3.7,-11.8 -3.5,-17.92 0.03,-14.6 0,-29.2 0.01,-43.8 z"
           inkscape:connector-curvature="0"
           style="opacity:1;fill:#323232" />
      </g>
    </g>
    <g
       id="g4527"
       transform="matrix(0.5742378,0,0,0.5742378,391.42168,105.00643)">
      <g
         id="#ffffffff-1">
        <path
           id="path4502"
           d="m 144.62,211.04 c 9.52,-1.26 19.93,2.78 25.23,10.99 1.83,2.54 2.84,6.54 0.31,8.98 -3.39,3.82 -10.34,2.79 -12.27,-2 -3.69,-7.58 -16.17,-7.5 -19.85,0.01 -2.11,4.03 0.22,9.04 4.18,10.87 8.83,3.92 19.22,4.6 26.88,10.94 6.09,4.71 10.32,12.25 9.82,20.09 0.04,7.04 -3.67,13.64 -8.9,18.18 -12.99,11.28 -34.97,10.34 -46.42,-2.72 -2.61,-3.27 -5.26,-7.1 -5.26,-11.44 0.87,-5.92 10.04,-7.48 13.06,-2.39 1.71,3.43 3.34,7.28 6.96,9.13 7.98,5.1 20.01,2.99 24.92,-5.37 3.43,-5.52 1.13,-13.11 -4.16,-16.57 -5.45,-3.54 -12.07,-4.45 -18.09,-6.69 -5.96,-1.49 -11.41,-5.06 -14.86,-10.2 -3.85,-5.91 -4.19,-14.06 -0.42,-20.1 3.85,-6.73 11.31,-10.77 18.87,-11.71 z"
           inkscape:connector-curvature="0"
           style="opacity:1;fill:#ffffff" />
      </g>
      <g
         id="#0185c6ff">
        <path
           id="path4505"
           d="m 153.97,167.04 c 9.76,-2.66 20.76,-2.89 29.85,2.07 8.53,4.46 14.15,12.97 17.15,21.9 2.23,6.84 3.68,14 3.66,21.22 -3.37,-7.92 -5.5,-16.82 -11.96,-22.95 -10.4,-10.11 -26.58,-12.29 -39.99,-7.7 -19.81,6.83 -37.37,19.23 -51.74,34.35 -8.5,9.3 -15.96,19.8 -20.35,31.69 -1.9,4.95 -2.45,10.28 -4.24,15.27 -1.23,-4.56 0.01,-9.3 0.43,-13.89 3.68,-20.74 15.49,-39.26 30.19,-54.01 13.09,-12.89 29.08,-23.34 47,-27.95 z"
           inkscape:connector-curvature="0"
           style="opacity:1;fill:#0185c6" />
      </g>
      <g
         id="#135b96ff">
        <path
           id="path4508"
           d="m 152.68,181.58 c 13.41,-4.59 29.59,-2.41 39.99,7.7 6.46,6.13 8.59,15.03 11.96,22.95 1.15,8.85 0.13,17.8 -0.22,26.68 -2.11,17.4 -4.61,35.46 -13.82,50.75 -6.75,11.43 -17.65,20.57 -30.53,24.18 -16.48,4.84 -34.24,1.57 -49.75,-5.04 -10.61,-4.99 -20.7,-12.09 -27.01,-22.17 -4.18,-7.14 -7.06,-15.42 -6.95,-23.74 1.79,-4.99 2.34,-10.32 4.24,-15.27 4.39,-11.89 11.85,-22.39 20.35,-31.69 14.37,-15.12 31.93,-27.52 51.74,-34.35 m -8.06,29.46 c -7.56,0.94 -15.02,4.98 -18.87,11.71 -3.77,6.04 -3.43,14.19 0.42,20.1 3.45,5.14 8.9,8.71 14.86,10.2 6.02,2.24 12.64,3.15 18.09,6.69 5.29,3.46 7.59,11.05 4.16,16.57 -4.91,8.36 -16.94,10.47 -24.92,5.37 -3.62,-1.85 -5.25,-5.7 -6.96,-9.13 -3.02,-5.09 -12.19,-3.53 -13.06,2.39 0,4.34 2.65,8.17 5.26,11.44 11.45,13.06 33.43,14 46.42,2.72 5.23,-4.54 8.94,-11.14 8.9,-18.18 0.5,-7.84 -3.73,-15.38 -9.82,-20.09 -7.66,-6.34 -18.05,-7.02 -26.88,-10.94 -3.96,-1.83 -6.29,-6.84 -4.18,-10.87 3.68,-7.51 16.16,-7.59 19.85,-0.01 1.93,4.79 8.88,5.82 12.27,2 2.53,-2.44 1.52,-6.44 -0.31,-8.98 -5.3,-8.21 -15.71,-12.25 -25.23,-10.99 z"
           inkscape:connector-curvature="0"
           style="opacity:1;fill:#135b96" />
      </g>
      <g
         id="#3f3f3fff">
        <path
           id="path4511"
           d="m 351.41,256.55 c 5.41,-1.92 11.33,-1.92 16.97,-1.11 3.44,0.52 7.22,1.93 8.91,5.22 1.24,3.02 0.75,6.38 0.84,9.56 -8.27,2.6 -16.6,5 -24.87,7.62 0.35,3.15 -1.15,7.61 2.24,9.53 3.97,1.85 8.96,1.79 12.96,0.03 2.66,-1.21 2.13,-4.4 2.24,-6.77 2.51,-0.82 5.03,-1.61 7.55,-2.41 -0.4,4.37 0.99,9.94 -2.87,13.14 -4.89,3.67 -11.48,3.43 -17.3,3.16 -4.78,-0.35 -11.08,-2.05 -12.07,-7.56 -0.47,-7.31 -0.1,-14.67 -0.2,-22 -0.28,-3.73 2.13,-7.16 5.6,-8.41 m 5.11,5.17 c -4.41,1.34 -3.06,6.59 -3.25,10.06 5.89,-1.83 11.77,-3.65 17.64,-5.52 -1.41,-6.27 -9.55,-6 -14.39,-4.54 z"
           inkscape:connector-curvature="0"
           style="opacity:1;fill:#3f3f3f" />
        <path
           id="path4513"
           d="m 214.33,254.9 c 5.91,0.04 11.83,-0.1 17.75,0.05 3.7,0.13 7.94,0.72 10.11,4.13 3.82,-4.43 10.44,-4.62 15.8,-3.72 4.01,0.65 6.49,4.73 6.33,8.6 0.06,9.97 0,19.94 0.02,29.91 -2.51,-0.01 -5.01,-0.02 -7.51,-0.05 -0.07,-9.62 0.16,-19.24 -0.09,-28.86 -0.24,-3.21 -4.07,-4.06 -6.7,-4.1 -2.69,0 -6.57,0.8 -6.84,4.1 -0.77,9.6 0.05,19.27 -0.32,28.89 -2.44,0 -4.88,0.01 -7.31,0.03 -0.01,-8.98 0,-17.96 0.01,-26.94 0.9,-7.16 -10.78,-8.12 -13.63,-2.85 -0.44,9.9 -0.04,19.85 -0.18,29.77 -2.47,0 -4.94,0 -7.41,0 -0.01,-12.99 0.04,-25.98 -0.03,-38.96 z"
           inkscape:connector-curvature="0"
           style="opacity:1;fill:#3f3f3f" />
        <path
           id="path4515"
           d="m 278.46,255.66 c 5.74,-1.04 11.78,-1.12 17.39,0.58 3.37,1.02 6.42,3.99 6.37,7.7 0.01,7.38 0.1,14.76 -0.03,22.13 -0.09,3.98 -3.65,6.74 -7.25,7.58 -5.82,1.42 -12.04,1.41 -17.84,-0.06 -3.53,-0.87 -6.89,-3.67 -7.01,-7.53 -0.41,-7.33 -0.27,-14.7 -0.08,-22.04 -0.05,-4.64 4.3,-7.64 8.45,-8.36 m 2.84,5.86 c -2.07,0.49 -4.03,2.26 -3.87,4.55 -0.01,6.17 -0.22,12.36 0.11,18.52 1.01,4.01 6.16,4.1 9.5,4.05 2.98,-0.03 7.57,-0.89 7.68,-4.62 -0.02,-6.54 0.26,-13.1 -0.15,-19.61 -2.53,-4.42 -8.96,-3.82 -13.27,-2.89 z"
           inkscape:connector-curvature="0"
           style="opacity:1;fill:#3f3f3f" />
        <path
           id="path4517"
           d="m 308.34,255.1 c 4.86,-0.51 9.77,-0.05 14.65,-0.21 4.65,0.07 9.79,-0.43 13.86,2.27 2.57,1.7 3.42,4.95 3.37,7.88 0,9.61 0,19.23 -0.02,28.84 -2.48,-0.02 -4.97,-0.03 -7.45,-0.04 -0.04,-9.31 0.09,-18.63 -0.05,-27.93 0.18,-2.15 -1.67,-3.81 -3.6,-4.33 -3.39,-0.93 -7.07,-0.98 -10.42,0.13 -1.77,0.6 -3.43,2.16 -3.25,4.17 -0.1,9.33 0.01,18.67 -0.04,28 -2.48,-0.01 -4.95,-0.02 -7.43,-0.05 -0.12,-12.68 -0.14,-25.37 0,-38.05 l 0.38,-0.68 z"
           inkscape:connector-curvature="0"
           style="opacity:1;fill:#3f3f3f" />
        <path
           id="path4519"
           d="m 379.2,255.7 c 2.96,-0.02 5.93,-0.01 8.9,0 3.35,9.55 6.56,19.14 9.95,28.67 0.57,-0.88 1.03,-1.82 1.38,-2.82 2.8,-8.62 5.55,-17.25 8.39,-25.86 2.97,0 5.94,0 8.91,0.01 -5.96,15.38 -11.9,30.77 -17.84,46.17 -0.96,2.42 -2.68,4.79 -5.24,5.64 -2.64,0.51 -5.35,0.25 -8.02,0.28 0,-1.98 0.01,-3.96 0.02,-5.93 2.45,-0.27 6.13,0.98 7.34,-1.99 0.95,-2.47 2.63,-5.32 1.25,-7.94 -5.03,-12.07 -10.04,-24.15 -15.04,-36.23 z"
           inkscape:connector-curvature="0"
           style="opacity:1;fill:#3f3f3f" />
      </g>
    </g>
  </g>
</svg>
